<svg xmlns="http://www.w3.org/2000/svg" width="112.1" height="173.26" viewBox="0 0 112.1 173.26">
  <defs>
    <style>
      .cls-1 {
        fill: #aa95fe;
        fill-rule: evenodd;
      }
    </style>
  </defs>
  <path class="cls-1" d="M1496.67,1592.42h-2.96a1.135,1.135,0,0,1,0-2.27h2.96A1.135,1.135,0,0,1,1496.67,1592.42Zm51.96-35.24a1.137,1.137,0,0,1-1.13-1.14v-8.58a1.13,1.13,0,1,1,2.26,0v8.58A1.131,1.131,0,0,1,1548.63,1557.18Zm0-16.82a1.135,1.135,0,0,1-1.13-1.13v-2.97a1.13,1.13,0,0,1,2.26,0v2.97A1.129,1.129,0,0,1,1548.63,1540.36Zm-13.46,19.5a1.122,1.122,0,0,1-1.04-.7l-3.28-7.93a1.13,1.13,0,1,1,2.09-.86l3.27,7.92a1.129,1.129,0,0,1-.61,1.48A1.07,1.07,0,0,1,1535.17,1559.86Zm-6.42-15.54a1.146,1.146,0,0,1-1.05-.7l-1.13-2.74a1.13,1.13,0,0,1,2.09-.86l1.13,2.74a1.129,1.129,0,0,1-.61,1.48A1.092,1.092,0,0,1,1528.75,1544.32Zm-4.99,23.18a1.128,1.128,0,0,1-.8-0.33l-6.06-6.07a1.131,1.131,0,0,1,1.6-1.6l6.06,6.07A1.13,1.13,0,0,1,1523.76,1567.5Zm-11.87-11.89a1.128,1.128,0,0,1-.8-0.33l-2.09-2.1a1.131,1.131,0,0,1,1.6-1.6l2.09,2.1A1.13,1.13,0,0,1,1511.89,1555.61Zm4.24,23.32a1.106,1.106,0,0,1-.43-0.09l-7.91-3.28a1.13,1.13,0,0,1,.86-2.09l7.92,3.28a1.137,1.137,0,0,1,.61,1.48A1.126,1.126,0,0,1,1516.13,1578.93Zm-15.5-6.43a1.07,1.07,0,0,1-.43-0.09l-2.74-1.14a1.118,1.118,0,0,1-.61-1.47,1.133,1.133,0,0,1,1.48-.62l2.73,1.14A1.134,1.134,0,0,1,1500.63,1572.5Zm12.83,19.92h-8.57a1.135,1.135,0,0,1,0-2.27h8.57A1.135,1.135,0,0,1,1513.46,1592.42Zm-5.24,16.77a1.134,1.134,0,0,1-.43-2.18l7.91-3.29a1.132,1.132,0,0,1,.87,2.09l-7.92,3.29A1.07,1.07,0,0,1,1508.22,1609.19Zm-10.33,4.28a1.134,1.134,0,0,1-.43-2.18l2.74-1.13a1.13,1.13,0,0,1,.86,2.09l-2.73,1.13A1.154,1.154,0,0,1,1497.89,1613.47Zm19.81,9.93a1.13,1.13,0,0,1-.8-1.93l6.06-6.07a1.131,1.131,0,0,1,1.6,1.6l-6.06,6.07A1.128,1.128,0,0,1,1517.7,1623.4Zm-7.9,7.92a1.13,1.13,0,0,1-.8-1.93l2.09-2.1a1.131,1.131,0,0,1,1.6,1.6l-2.09,2.1A1.128,1.128,0,0,1,1509.8,1631.32Zm22.09,1.58a1.106,1.106,0,0,1-.43-0.09,1.121,1.121,0,0,1-.61-1.47l3.28-7.93a1.122,1.122,0,0,1,1.47-.62,1.145,1.145,0,0,1,.62,1.48l-3.28,7.93A1.126,1.126,0,0,1,1531.89,1632.9Zm-4.27,10.35a1.154,1.154,0,0,1-.44-0.09,1.137,1.137,0,0,1-.61-1.48l1.13-2.74a1.132,1.132,0,0,1,2.09.87l-1.13,2.74A1.138,1.138,0,0,1,1527.62,1643.25Zm21.01-7.01a1.137,1.137,0,0,1-1.13-1.14v-8.58a1.13,1.13,0,1,1,2.26,0v8.58A1.131,1.131,0,0,1,1548.63,1636.24Zm0,11.2a1.137,1.137,0,0,1-1.13-1.14v-2.96a1.13,1.13,0,1,1,2.26,0v2.96A1.131,1.131,0,0,1,1548.63,1647.44Zm16.74-14.54a1.122,1.122,0,0,1-1.04-.7l-3.28-7.93a1.13,1.13,0,1,1,2.09-.86l3.27,7.92a1.129,1.129,0,0,1-.61,1.48A1.07,1.07,0,0,1,1565.37,1632.9Zm4.28,10.35a1.162,1.162,0,0,1-1.05-.7l-1.13-2.74a1.132,1.132,0,1,1,2.09-.87l1.13,2.74a1.129,1.129,0,0,1-.61,1.48A1.106,1.106,0,0,1,1569.65,1643.25Zm9.91-19.85a1.128,1.128,0,0,1-.8-0.33l-6.05-6.07a1.128,1.128,0,0,1,1.59-1.6l6.06,6.07A1.13,1.13,0,0,1,1579.56,1623.4Zm7.91,7.92a1.128,1.128,0,0,1-.8-0.33l-2.1-2.1a1.131,1.131,0,0,1,1.6-1.6l2.09,2.1A1.13,1.13,0,0,1,1587.47,1631.32Zm1.57-22.14a1.092,1.092,0,0,1-.43-0.08l-7.91-3.29a1.13,1.13,0,0,1,.86-2.09l7.91,3.29A1.125,1.125,0,0,1,1589.04,1609.18Zm10.33,4.29a1.106,1.106,0,0,1-.43-0.09l-2.74-1.13a1.132,1.132,0,0,1,.87-2.09l2.73,1.13A1.134,1.134,0,0,1,1599.37,1613.47Zm-7-21.06h-8.56a1.13,1.13,0,1,1,0-2.26h8.56A1.13,1.13,0,1,1,1592.37,1592.41Zm11.18,0.01h-2.96a1.135,1.135,0,0,1,0-2.27h2.96A1.135,1.135,0,0,1,1603.55,1592.42Zm-22.42-13.49a1.132,1.132,0,0,1-.43-2.18l7.91-3.28a1.129,1.129,0,0,1,1.48.61,1.142,1.142,0,0,1-.62,1.48l-7.91,3.28A1.106,1.106,0,0,1,1581.13,1578.93Zm15.51-6.43a1.134,1.134,0,0,1-.44-2.18l2.74-1.14a1.13,1.13,0,0,1,.86,2.09l-2.73,1.14A1.106,1.106,0,0,1,1596.64,1572.5Zm-23.14-5a1.105,1.105,0,0,1-.79-0.33,1.129,1.129,0,0,1,0-1.61l6.05-6.06a1.131,1.131,0,0,1,1.6,1.6l-6.06,6.07A1.128,1.128,0,0,1,1573.5,1567.5Zm11.87-11.89a1.13,1.13,0,0,1-.8-1.93l2.1-2.1a1.128,1.128,0,1,1,1.59,1.6l-2.09,2.1A1.128,1.128,0,0,1,1585.37,1555.61Zm-23.28,4.25a1.106,1.106,0,0,1-.43-0.09,1.129,1.129,0,0,1-.61-1.48l3.28-7.92a1.125,1.125,0,1,1,2.08.86l-3.27,7.93A1.126,1.126,0,0,1,1562.09,1559.86Zm6.42-15.54a1.092,1.092,0,0,1-.43-0.08,1.137,1.137,0,0,1-.61-1.48l1.13-2.74a1.13,1.13,0,0,1,2.09.86l-1.13,2.74A1.126,1.126,0,0,1,1568.51,1544.32Zm-46.95,43.38a0.784,0.784,0,0,1-.22-0.02l-2.11-.42a1.132,1.132,0,1,1,.44-2.22l2.11,0.42A1.132,1.132,0,0,1,1521.56,1587.7Zm30.15-9.64a1.8,1.8,0,0,1-.22-0.02,1.122,1.122,0,0,1-.88-1.33l1.23-6.24a1.141,1.141,0,0,1,1.33-.89,1.128,1.128,0,0,1,.89,1.33l-1.24,6.24A1.132,1.132,0,0,1,1551.71,1578.06Zm2.42-12.16a1.635,1.635,0,0,1-.22-0.02,1.136,1.136,0,0,1-.89-1.33l0.42-2.11a1.116,1.116,0,0,1,1.33-.89,1.131,1.131,0,0,1,.89,1.33l-0.42,2.11A1.132,1.132,0,0,1,1554.13,1565.9Zm-8.4,12.16a1.122,1.122,0,0,1-1.1-.91l-1.24-6.24a1.127,1.127,0,1,1,2.21-.44l1.24,6.24a1.129,1.129,0,0,1-.88,1.33A1.785,1.785,0,0,1,1545.73,1578.06Zm-2.41-12.16a1.132,1.132,0,0,1-1.11-.91l-0.42-2.11a1.132,1.132,0,0,1,2.22-.44l0.42,2.11a1.136,1.136,0,0,1-.89,1.33A1.635,1.635,0,0,1,1543.32,1565.9Zm-3.11,14.45a1.125,1.125,0,0,1-.94-0.5l-3.53-5.29a1.141,1.141,0,0,1,.32-1.57,1.117,1.117,0,0,1,1.56.31l3.53,5.29A1.129,1.129,0,0,1,1540.21,1580.35Zm-6.87-10.31a1.1,1.1,0,0,1-.94-0.5l-1.2-1.79a1.147,1.147,0,0,1,.31-1.57,1.129,1.129,0,0,1,1.57.31l1.19,1.79a1.127,1.127,0,0,1-.31,1.57A1.1,1.1,0,0,1,1533.34,1570.04Zm2.64,14.55a1.132,1.132,0,0,1-.63-0.19l-5.27-3.54a1.129,1.129,0,1,1,1.25-1.88l5.28,3.53A1.138,1.138,0,0,1,1535.98,1584.59Zm-10.29-6.89a1.156,1.156,0,0,1-.63-0.19l-1.78-1.2a1.127,1.127,0,0,1-.31-1.57,1.116,1.116,0,0,1,1.56-.31l1.79,1.2A1.13,1.13,0,0,1,1525.69,1577.7Zm8,12.42a0.858,0.858,0,0,1-.22-0.02l-6.22-1.24a1.132,1.132,0,1,1,.44-2.22l6.22,1.24A1.131,1.131,0,0,1,1533.69,1590.12Zm-6.22,7.23a1.131,1.131,0,0,1-.22-2.24l6.22-1.24a1.132,1.132,0,1,1,.44,2.22l-6.22,1.24A0.858,0.858,0,0,1,1527.47,1597.35Zm-8.02,1.6a1.131,1.131,0,0,1-.22-2.24l2.11-.42a1.132,1.132,0,0,1,.44,2.22l-2.11.42A1.635,1.635,0,0,1,1519.45,1598.95Zm11.25,6.23a1.127,1.127,0,0,1-.62-2.07l5.27-3.54a1.136,1.136,0,0,1,1.26,1.89l-5.28,3.53A1.109,1.109,0,0,1,1530.7,1605.18Zm-6.79,4.55a1.13,1.13,0,0,1-.63-2.07l1.78-1.2a1.132,1.132,0,0,1,1.26,1.88l-1.79,1.2A1.1,1.1,0,0,1,1523.91,1609.73Zm12.77,1.44a1.1,1.1,0,0,1-.62-0.19,1.141,1.141,0,0,1-.32-1.57l3.53-5.29a1.132,1.132,0,0,1,1.88,1.26l-3.53,5.29A1.137,1.137,0,0,1,1536.68,1611.17Zm-4.54,6.81a1.129,1.129,0,0,1-.94-1.76l1.19-1.79a1.132,1.132,0,1,1,1.88,1.26l-1.19,1.79A1.15,1.15,0,0,1,1532.14,1617.98Zm12.36-3.57a0.9,0.9,0,0,1-.23-0.02,1.129,1.129,0,0,1-.88-1.33l1.24-6.24a1.127,1.127,0,1,1,2.21.44l-1.24,6.24A1.122,1.122,0,0,1,1544.5,1614.41Zm-1.6,8.04a1.635,1.635,0,0,1-.22-0.02,1.146,1.146,0,0,1-.89-1.34l0.42-2.11a1.132,1.132,0,0,1,2.22.44l-0.42,2.12A1.142,1.142,0,0,1,1542.9,1622.45Zm10.05-8.04a1.132,1.132,0,0,1-1.11-.91l-1.23-6.24a1.127,1.127,0,1,1,2.21-.44l1.24,6.24a1.136,1.136,0,0,1-.89,1.33A0.82,0.82,0,0,1,1552.95,1614.41Zm1.6,8.04a1.142,1.142,0,0,1-1.11-.91l-0.42-2.12a1.132,1.132,0,0,1,2.22-.44l0.42,2.11a1.146,1.146,0,0,1-.89,1.34A1.8,1.8,0,0,1,1554.55,1622.45Zm6.22-11.28a1.124,1.124,0,0,1-.94-0.5l-3.53-5.29a1.132,1.132,0,0,1,1.88-1.26l3.52,5.29a1.129,1.129,0,0,1-.31,1.57A1.1,1.1,0,0,1,1560.77,1611.17Zm4.54,6.81a1.1,1.1,0,0,1-.94-0.5l-1.2-1.79a1.141,1.141,0,0,1,.32-1.57,1.117,1.117,0,0,1,1.56.31l1.2,1.79a1.141,1.141,0,0,1-.32,1.57A1.1,1.1,0,0,1,1565.31,1617.98Zm1.43-12.8a1.1,1.1,0,0,1-.62-0.19l-5.28-3.53a1.133,1.133,0,0,1,1.25-1.89l5.28,3.54A1.13,1.13,0,0,1,1566.74,1605.18Zm6.8,4.55a1.156,1.156,0,0,1-.63-0.19l-1.78-1.19a1.133,1.133,0,0,1,1.25-1.89l1.79,1.2A1.13,1.13,0,0,1,1573.54,1609.73Zm-3.56-12.38a0.82,0.82,0,0,1-.22-0.02l-6.23-1.24a1.133,1.133,0,0,1,.45-2.22l6.22,1.24A1.131,1.131,0,0,1,1569.98,1597.35Zm8.02,1.6a0.82,0.82,0,0,1-.22-0.02l-2.11-.42a1.132,1.132,0,1,1,.44-2.22l2.11,0.42A1.131,1.131,0,0,1,1578,1598.95Zm-14.25-8.83a1.132,1.132,0,0,1-.22-2.24l6.23-1.24a1.132,1.132,0,0,1,.44,2.22l-6.23,1.24A0.784,0.784,0,0,1,1563.75,1590.12Zm12.14-2.42a1.131,1.131,0,0,1-.22-2.24l2.11-.42a1.132,1.132,0,1,1,.44,2.22l-2.11.42A0.82,0.82,0,0,1,1575.89,1587.7Zm-14.42-3.11a1.138,1.138,0,0,1-.63-2.08l5.28-3.53a1.116,1.116,0,0,1,1.56.31,1.127,1.127,0,0,1-.31,1.57l-5.28,3.54A1.1,1.1,0,0,1,1561.47,1584.59Zm10.29-6.89a1.13,1.13,0,0,1-.63-2.07l1.78-1.2a1.132,1.132,0,1,1,1.26,1.88l-1.79,1.2A1.1,1.1,0,0,1,1571.76,1577.7Zm-14.52,2.65a1.109,1.109,0,0,1-.63-0.19,1.129,1.129,0,0,1-.31-1.57l3.53-5.29a1.116,1.116,0,0,1,1.56-.31,1.129,1.129,0,0,1,.31,1.57l-3.52,5.29A1.125,1.125,0,0,1,1557.24,1580.35Zm6.87-10.31a1.1,1.1,0,0,1-.62-0.19,1.139,1.139,0,0,1-.32-1.57l1.2-1.79a1.117,1.117,0,0,1,1.56-.31,1.141,1.141,0,0,1,.32,1.57l-1.2,1.79A1.1,1.1,0,0,1,1564.11,1570.04Zm-15.48,138.33a1.135,1.135,0,0,1-1.13-1.13v-37.67a1.13,1.13,0,1,1,2.26,0v37.67A1.129,1.129,0,0,1,1548.63,1708.37Zm0-48.42a1.135,1.135,0,0,1-1.13-1.13v-5.13a1.13,1.13,0,1,1,2.26,0v5.13A1.129,1.129,0,0,1,1548.63,1659.95Z" transform="translate(-1492.59 -1535.12)"/>
</svg>
