<?xml version="1.0" encoding="UTF-8" standalone="no"?>
<svg
   xmlns:dc="http://purl.org/dc/elements/1.1/"
   xmlns:cc="http://creativecommons.org/ns#"
   xmlns:rdf="http://www.w3.org/1999/02/22-rdf-syntax-ns#"
   xmlns:svg="http://www.w3.org/2000/svg"
   xmlns="http://www.w3.org/2000/svg"
   xmlns:sodipodi="http://sodipodi.sourceforge.net/DTD/sodipodi-0.dtd"
   xmlns:inkscape="http://www.inkscape.org/namespaces/inkscape"
   version="1.1"
   id="svg2"
   xml:space="preserve"
   width="233.85733"
   height="233.85733"
   viewBox="0 0 233.85733 233.85733"
   sodipodi:docname="icon-thumbsup-pink.ai"><metadata
     id="metadata8"><rdf:RDF><cc:Work
         rdf:about=""><dc:format>image/svg+xml</dc:format><dc:type
           rdf:resource="http://purl.org/dc/dcmitype/StillImage" /></cc:Work></rdf:RDF></metadata><defs
     id="defs6"><clipPath
       clipPathUnits="userSpaceOnUse"
       id="clipPath18"><path
         d="M 0,175.393 H 175.393 V 0 H 0 Z"
         id="path16" /></clipPath></defs><sodipodi:namedview
     pagecolor="#ffffff"
     bordercolor="#666666"
     borderopacity="1"
     objecttolerance="10"
     gridtolerance="10"
     guidetolerance="10"
     inkscape:pageopacity="0"
     inkscape:pageshadow="2"
     inkscape:window-width="640"
     inkscape:window-height="480"
     id="namedview4" /><g
     id="g10"
     inkscape:groupmode="layer"
     inkscape:label="icon-thumbsup-pink"
     transform="matrix(1.3333333,0,0,-1.3333333,0,233.85733)"><g
       id="g12"><g
         id="g14"
         clip-path="url(#clipPath18)"><g
           id="g20"
           transform="translate(171.9388,111.9851)"><path
             d="m 0,0 c 13.414,-46.526 -13.428,-95.117 -59.954,-108.531 -46.525,-13.414 -95.116,13.428 -108.53,59.954 -13.415,46.525 13.427,95.116 59.953,108.531 C -62.005,73.368 -13.415,46.526 0,0"
             style="fill:#e6378d;fill-opacity:1;fill-rule:nonzero;stroke:none"
             id="path22" /></g><g
           id="g24"
           transform="translate(73.0833,47.633)"><path
             d="m 0,0 -24.114,-6.952 -16.692,57.894 24.114,6.953 z"
             style="fill:#ffffff;fill-opacity:1;fill-rule:nonzero;stroke:none"
             id="path26" /></g><g
           id="g28"
           transform="translate(136.2044,119.9597)"><path
             d="m 0,0 v 0 c -1.974,7.368 -9.547,11.74 -16.915,9.767 l -3.486,-0.934 -0.017,0.063 -0.596,-0.233 C -21.956,8.403 -22.847,8.05 -23.683,7.619 L -42.504,0.255 c 0.595,10.535 -4.851,23.429 -15.483,25.859 -1.645,0.375 -3.283,-0.654 -3.659,-2.299 l -6.32,-27.658 -7.516,-6.669 4.616,-17.231 11.842,-44.199 54.062,14.484 c 0.559,0.078 1.119,0.179 1.678,0.329 l 4.004,1.073 c 7.368,1.973 11.74,9.546 9.767,16.914 -0.937,3.495 -3.141,6.303 -5.977,8.092 1.562,2.967 2.067,6.501 1.131,9.995 -1.148,4.284 -4.194,7.544 -7.987,9.144 C 0.139,-8.63 1.147,-4.284 0,0"
             style="fill:#ffffff;fill-opacity:1;fill-rule:nonzero;stroke:none"
             id="path30" /></g></g></g></g></svg>
