<svg xmlns="http://www.w3.org/2000/svg" width="28" height="28" viewBox="0 0 28 28">
  <defs>
    <style>
      .cls-1 {
        fill: #9792b4;
        fill-rule: evenodd;
      }
    </style>
  </defs>
  <path class="cls-1" d="M1595.23,62.577a6.041,6.041,0,1,0-6.88-.112,9.415,9.415,0,0,0-6.59,8.955V74h19.75V71.42A9.4,9.4,0,0,0,1595.23,62.577Zm-3.36-9.248a4.253,4.253,0,1,1-4.27,4.253A4.261,4.261,0,0,1,1591.87,53.329Zm7.87,18.909h-16.21V71.42a7.644,7.644,0,0,1,7.65-7.623h0.92a7.642,7.642,0,0,1,7.64,7.623v0.818Z" transform="translate(-1577.625 -48.781)"/>
</svg>
