<?xml version="1.0" encoding="UTF-8" standalone="no"?>
<svg
   xmlns:dc="http://purl.org/dc/elements/1.1/"
   xmlns:cc="http://creativecommons.org/ns#"
   xmlns:rdf="http://www.w3.org/1999/02/22-rdf-syntax-ns#"
   xmlns:svg="http://www.w3.org/2000/svg"
   xmlns="http://www.w3.org/2000/svg"
   viewBox="0 0 251.88667 251.88667"
   height="251.88667"
   width="251.88667"
   xml:space="preserve"
   id="svg2"
   version="1.1"><metadata
     id="metadata8"><rdf:RDF><cc:Work
         rdf:about=""><dc:format>image/svg+xml</dc:format><dc:type
           rdf:resource="http://purl.org/dc/dcmitype/StillImage" /></cc:Work></rdf:RDF></metadata><defs
     id="defs6"><clipPath
       id="clipPath18"
       clipPathUnits="userSpaceOnUse"><path
         id="path16"
         d="M 0,188.915 H 188.915 V 0 H 0 Z" /></clipPath></defs><g
     transform="matrix(1.3333333,0,0,-1.3333333,0,251.88667)"
     id="g10"><g
       id="g12"><g
         clip-path="url(#clipPath18)"
         id="g14"><g
           transform="translate(188.9153,94.4576)"
           id="g20"><path
             id="path22"
             style="fill:#ffe522;fill-opacity:1;fill-rule:nonzero;stroke:none"
             d="m 0,0 c 0,-52.167 -42.29,-94.458 -94.458,-94.458 -52.167,0 -94.457,42.291 -94.457,94.458 0,52.167 42.29,94.458 94.457,94.458 C -42.29,94.458 0,52.167 0,0" /></g><g
           transform="translate(96.4031,59.9635)"
           id="g24"><path
             id="path26"
             style="fill:#ec1c24;fill-opacity:1;fill-rule:nonzero;stroke:none"
             d="M 0,0 H -3.891 C -29.318,0 -49.932,20.613 -49.932,46.041 H 46.041 C 46.041,20.613 25.428,0 0,0" /></g><g
           transform="translate(65.9602,128.2027)"
           id="g28"><path
             id="path30"
             style="fill:#001c24;fill-opacity:1;fill-rule:nonzero;stroke:none"
             d="m 0,0 c -3.341,1.832 -6.582,3.837 -9.701,6.023 -0.766,0.537 -1.525,1.085 -2.276,1.643 -0.367,0.272 -0.79,0.528 -1.12,0.843 0.246,-0.235 0.375,-0.357 0.445,-0.423 -0.149,0.14 -0.521,0.488 -0.679,0.613 -1.518,1.203 -2.999,2.452 -4.449,3.738 -2.3,2.039 -6.078,2.435 -8.314,0 -2.047,-2.23 -2.457,-6.135 0,-8.313 3.231,-2.864 6.628,-5.541 10.162,-8.023 -3.637,-1.433 -7.276,-2.867 -10.913,-4.3 -1.472,-0.579 -2.685,-1.285 -3.513,-2.701 -0.737,-1.26 -1.049,-3.117 -0.592,-4.529 0.895,-2.766 4.167,-5.313 7.231,-4.106 7.438,2.93 14.877,5.861 22.315,8.791 2.239,0.883 3.872,2.378 4.21,4.888 C 3.109,-3.601 2.065,-1.132 0,0" /></g><g
           transform="translate(152.8523,117.3028)"
           id="g32"><path
             id="path34"
             style="fill:#001c24;fill-opacity:1;fill-rule:nonzero;stroke:none"
             d="m 0,0 c -0.878,1.363 -2.011,2.11 -3.513,2.701 -3.637,1.433 -7.275,2.867 -10.913,4.3 3.534,2.482 6.931,5.159 10.162,8.023 2.309,2.046 2.243,6.253 0,8.313 -2.463,2.261 -5.851,2.183 -8.312,0 -1.401,-1.241 -2.829,-2.449 -4.294,-3.614 -0.284,-0.226 -1.583,-1.453 -0.39,-0.314 -0.284,-0.27 -0.644,-0.489 -0.96,-0.724 -0.804,-0.6 -1.615,-1.186 -2.436,-1.762 -3.12,-2.186 -6.361,-4.191 -9.702,-6.023 -2.059,-1.129 -3.108,-3.605 -2.806,-5.857 0.332,-2.472 1.969,-4.003 4.211,-4.887 7.438,-2.93 14.876,-5.861 22.315,-8.791 1.332,-0.525 3.346,-0.1 4.53,0.593 1.219,0.713 2.381,2.111 2.7,3.513 C 0.936,-3.024 0.861,-1.335 0,0" /></g></g></g></g></svg>