<svg xmlns="http://www.w3.org/2000/svg" width="28" height="28" viewBox="0 0 28 28">
  <defs>
    <style>
      .cls-1 {
        fill: #9792b4;
        fill-rule: evenodd;
      }
    </style>
  </defs>
  <path class="cls-1" d="M1488.98,60.324V55.977a3.015,3.015,0,0,1,3.03-3h5.18a3.007,3.007,0,0,1,3.02,3v4.347h0.96c0.02,0,.03,0,0.04,0V55.977a4,4,0,0,0-4.02-3.982h-5.18a4,4,0,0,0-4.02,3.982v4.4a2.829,2.829,0,0,1,.48-0.048h0.51Zm1-4.347a2.022,2.022,0,0,1,2.03-2.01h5.18a2.022,2.022,0,0,1,2.03,2.01v4.347h0.99V55.977a3.007,3.007,0,0,0-3.02-3h-5.18a3.015,3.015,0,0,0-3.03,3v4.347h1V55.977Zm21.21,4.351v0.033a4.241,4.241,0,0,1-.13.95h0.09a1.839,1.839,0,0,1,1.85,1.827v8.037A1.839,1.839,0,0,1,1511.15,73h-12.71a1.839,1.839,0,0,1-1.85-1.826V63.138a1.831,1.831,0,0,1,1.51-1.793,3.905,3.905,0,0,1-.14-0.972,2.816,2.816,0,0,0-2.36,2.765v8.037a2.827,2.827,0,0,0,2.84,2.813h12.71a2.827,2.827,0,0,0,2.84-2.813V63.138A2.824,2.824,0,0,0,1511.19,60.328Zm-0.04,1.969a0.845,0.845,0,0,1,.85.84v8.037a0.845,0.845,0,0,1-.85.84h-12.71a0.845,0.845,0,0,1-.85-0.84V63.138a0.845,0.845,0,0,1,.85-0.84h0.05a3.965,3.965,0,0,1-.39-0.953,1.831,1.831,0,0,0-1.51,1.793v8.037A1.839,1.839,0,0,0,1498.44,73h12.71a1.839,1.839,0,0,0,1.85-1.826V63.138a1.839,1.839,0,0,0-1.85-1.827h-0.09a4.2,4.2,0,0,1-.4.986h0.49Zm-3.99.073a1.957,1.957,0,0,0,.51-0.073h-6.2a2.1,2.1,0,0,0,.52.073h5.17Zm2.03-2.009V60.324h-9.23v0.037a1.92,1.92,0,0,0,.25.95h8.73A2.031,2.031,0,0,0,1509.19,60.361Zm-0.25.95h-8.73a2.024,2.024,0,0,0,1.26.986h6.2A2.043,2.043,0,0,0,1508.94,61.311Zm1.25-.987v0.037a2.992,2.992,0,0,1-.17.95h1.04a4.241,4.241,0,0,0,.13-0.95V60.328c-0.02,0-.03,0-0.04,0h-0.96Zm-11.75.987h0.69a2.992,2.992,0,0,1-.17-0.95V60.324h-0.52a2.936,2.936,0,0,0-.48.048,3.905,3.905,0,0,0,.14.972A1.823,1.823,0,0,1,1498.44,61.311Zm11.01,0.986h1.21a4.2,4.2,0,0,0,.4-0.986h-1.04A3.047,3.047,0,0,1,1509.45,62.3Zm-9.76,0a3.022,3.022,0,0,1-.56-0.986h-0.69a1.823,1.823,0,0,0-.34.034,3.965,3.965,0,0,0,.39.953h1.2Zm9.5-1.936a2.031,2.031,0,0,1-.25.95h1.08a2.992,2.992,0,0,0,.17-0.95V60.324h-1v0.037Zm-9.23,0V60.324h-1v0.037a2.992,2.992,0,0,0,.17.95h1.08A1.92,1.92,0,0,1,1499.96,60.361Zm7.71,1.936h1.78a3.047,3.047,0,0,0,.57-0.986h-1.08A2.043,2.043,0,0,1,1507.67,62.3Zm-6.2,0a2.024,2.024,0,0,1-1.26-.986h-1.08a3.022,3.022,0,0,0,.56.986h1.78Zm2.51,6.028h1.63V65.987h-1.63v2.338Z" transform="translate(-1487 -49)"/>
</svg>
