<svg xmlns="http://www.w3.org/2000/svg" width="28" height="28" viewBox="0 0 28 28">
  <defs>
    <style>
      .cls-1 {
        fill: #9792b4;
        fill-rule: evenodd;
      }
    </style>
  </defs>
  <path class="cls-1" d="M1541.29,60.324V55.977a2.981,2.981,0,0,1,2.96-3h5.06a2.981,2.981,0,0,1,2.96,3v4.347h0.94c0.01,0,.02,0,0.03,0V55.977a3.959,3.959,0,0,0-3.93-3.982h-5.06a3.959,3.959,0,0,0-3.93,3.982v4.4a2.6,2.6,0,0,1,.46-0.048h0.51Zm0.98-4.347a2,2,0,0,1,1.98-2.01h5.06a2,2,0,0,1,1.98,2.01v4.347h0.98V55.977a2.981,2.981,0,0,0-2.96-3h-5.06a2.981,2.981,0,0,0-2.96,3v4.347h0.98V55.977Zm10.97,4.351v0.033a4.238,4.238,0,0,1-.12.95h0.09a1.816,1.816,0,0,1,1.8,1.827v8.037a1.816,1.816,0,0,1-1.8,1.826h-12.43a1.816,1.816,0,0,1-1.8-1.826V63.138a1.815,1.815,0,0,1,1.47-1.793,3.9,3.9,0,0,1-.13-0.972,2.809,2.809,0,0,0-2.32,2.765v8.037a2.8,2.8,0,0,0,2.78,2.813h12.43a2.8,2.8,0,0,0,2.78-2.813V63.138A2.8,2.8,0,0,0,1553.24,60.328Zm-0.03,1.969a0.841,0.841,0,0,1,.83.84v8.037a0.841,0.841,0,0,1-.83.84h-12.43a0.841,0.841,0,0,1-.83-0.84V63.138a0.841,0.841,0,0,1,.83-0.84h0.05a4.392,4.392,0,0,1-.38-0.953,1.815,1.815,0,0,0-1.47,1.793v8.037a1.816,1.816,0,0,0,1.8,1.826h12.43a1.816,1.816,0,0,0,1.8-1.826V63.138a1.816,1.816,0,0,0-1.8-1.827h-0.09a4.2,4.2,0,0,1-.4.986h0.49Zm-3.9.073a1.943,1.943,0,0,0,.5-0.073h-6.06a1.943,1.943,0,0,0,.5.073h5.06Zm1.98-2.009V60.324h-9.02v0.037a2.024,2.024,0,0,0,.24.95h8.53A1.92,1.92,0,0,0,1551.29,60.361Zm-0.25.95h-8.53a1.986,1.986,0,0,0,1.24.986h6.06A1.967,1.967,0,0,0,1551.04,61.311Zm1.23-.987v0.037a2.992,2.992,0,0,1-.17.95h1.02a4.238,4.238,0,0,0,.12-0.95V60.328c-0.01,0-.02,0-0.03,0h-0.94Zm-11.49.987h0.68a2.992,2.992,0,0,1-.17-0.95V60.324h-0.51a2.6,2.6,0,0,0-.46.048,3.9,3.9,0,0,0,.13.972A1.8,1.8,0,0,1,1540.78,61.311Zm10.77,0.986h1.17a4.2,4.2,0,0,0,.4-0.986h-1.02A3,3,0,0,1,1551.55,62.3Zm-9.54,0a3,3,0,0,1-.55-0.986h-0.68a1.8,1.8,0,0,0-.33.034,4.392,4.392,0,0,0,.38.953h1.18Zm9.28-1.936a1.92,1.92,0,0,1-.25.95h1.06a2.992,2.992,0,0,0,.17-0.95V60.324h-0.98v0.037Zm-9.02,0V60.324h-0.98v0.037a2.992,2.992,0,0,0,.17.95h1.05A2.024,2.024,0,0,1,1542.27,60.361Zm7.54,1.936h1.74a3,3,0,0,0,.55-0.986h-1.06A1.967,1.967,0,0,1,1549.81,62.3Zm-6.06,0a1.986,1.986,0,0,1-1.24-.986h-1.05a3,3,0,0,0,.55.986h1.74Zm2.45,6.028h1.59V65.987h-1.59v2.338Z" transform="translate(-1533 -49)"/>
</svg>
