<?xml version="1.0" encoding="UTF-8" standalone="no"?>
<svg
   xmlns:dc="http://purl.org/dc/elements/1.1/"
   xmlns:cc="http://creativecommons.org/ns#"
   xmlns:rdf="http://www.w3.org/1999/02/22-rdf-syntax-ns#"
   xmlns:svg="http://www.w3.org/2000/svg"
   xmlns="http://www.w3.org/2000/svg"
   xmlns:sodipodi="http://sodipodi.sourceforge.net/DTD/sodipodi-0.dtd"
   xmlns:inkscape="http://www.inkscape.org/namespaces/inkscape"
   version="1.1"
   id="svg2"
   xml:space="preserve"
   width="209.18266"
   height="209.18266"
   viewBox="0 0 209.18266 209.18266"
   sodipodi:docname="emoji.ai"><metadata
     id="metadata8"><rdf:RDF><cc:Work
         rdf:about=""><dc:format>image/svg+xml</dc:format><dc:type
           rdf:resource="http://purl.org/dc/dcmitype/StillImage" /></cc:Work></rdf:RDF></metadata><defs
     id="defs6"><clipPath
       clipPathUnits="userSpaceOnUse"
       id="clipPath18"><path
         d="M 0,156.887 H 156.887 V 0 H 0 Z"
         id="path16" /></clipPath></defs><sodipodi:namedview
     pagecolor="#ffffff"
     bordercolor="#666666"
     borderopacity="1"
     objecttolerance="10"
     gridtolerance="10"
     guidetolerance="10"
     inkscape:pageopacity="0"
     inkscape:pageshadow="2"
     inkscape:window-width="640"
     inkscape:window-height="480"
     id="namedview4" /><g
     id="g10"
     inkscape:groupmode="layer"
     inkscape:label="emoji"
     transform="matrix(1.3333333,0,0,-1.3333333,0,209.18267)"><g
       id="g12"><g
         id="g14"
         clip-path="url(#clipPath18)"><g
           id="g20"
           transform="translate(156.2204,88.5778)"><path
             d="m 0,0 c 5.597,-42.955 -24.687,-82.314 -67.643,-87.912 -42.955,-5.597 -82.314,24.688 -87.911,67.643 -5.597,42.955 24.687,82.314 67.642,87.912 C -44.957,73.24 -5.597,42.956 0,0"
             style="fill:#ffe522;fill-opacity:1;fill-rule:nonzero;stroke:none"
             id="path22" /></g><g
           id="g24"
           transform="translate(86.2189,31.274)"><path
             d="m 0,0 -3.204,-0.417 c -20.937,-2.729 -40.122,12.033 -42.85,32.97 L 32.97,42.85 C 35.699,21.913 20.937,2.728 0,0"
             style="fill:#ffffff;fill-opacity:1;fill-rule:nonzero;stroke:none"
             id="path26" /></g><g
           id="g28"
           transform="translate(65.8991,88.6432)"><path
             d="m 0,0 -22.342,-21.149 -27.663,15.07 c -5.251,2.862 -9.131,7.815 -10.355,13.669 -1.057,5.056 -0.677,10.718 2.601,14.753 7.994,9.841 20.128,5.945 29.878,-0.984 6.822,7.897 15.092,15.216 25.58,10.319 C 1.374,29.961 3.652,26.279 5.141,22.601 8.307,14.78 6.127,5.8 0,0"
             style="fill:#ec1c24;fill-opacity:1;fill-rule:nonzero;stroke:none"
             id="path30" /></g><g
           id="g32"
           transform="translate(141.4225,98.484)"><path
             d="m 0,0 -22.342,-21.149 -27.663,15.071 c -5.251,2.861 -9.131,7.814 -10.355,13.668 -1.057,5.056 -0.677,10.718 2.601,14.753 7.994,9.841 20.128,5.945 29.878,-0.984 6.822,7.897 15.092,15.216 25.58,10.319 C 1.374,29.961 3.652,26.279 5.141,22.601 8.307,14.78 6.127,5.8 0,0"
             style="fill:#ec1c24;fill-opacity:1;fill-rule:nonzero;stroke:none"
             id="path34" /></g></g></g></g></svg>
