<?xml version="1.0" encoding="UTF-8" standalone="no"?>
<svg
   xmlns:dc="http://purl.org/dc/elements/1.1/"
   xmlns:cc="http://creativecommons.org/ns#"
   xmlns:rdf="http://www.w3.org/1999/02/22-rdf-syntax-ns#"
   xmlns:svg="http://www.w3.org/2000/svg"
   xmlns="http://www.w3.org/2000/svg"
   xmlns:sodipodi="http://sodipodi.sourceforge.net/DTD/sodipodi-0.dtd"
   xmlns:inkscape="http://www.inkscape.org/namespaces/inkscape"
   version="1.1"
   id="svg2"
   xml:space="preserve"
   width="176.03999"
   height="176.03999"
   viewBox="0 0 176.03999 176.03999"
   sodipodi:docname="Vector Smart Object.ai"><metadata
     id="metadata8"><rdf:RDF><cc:Work
         rdf:about=""><dc:format>image/svg+xml</dc:format><dc:type
           rdf:resource="http://purl.org/dc/dcmitype/StillImage" /></cc:Work></rdf:RDF></metadata><defs
     id="defs6"><clipPath
       clipPathUnits="userSpaceOnUse"
       id="clipPath18"><path
         d="M 0,132.03 H 132.03 V 0 H 0 Z"
         id="path16" /></clipPath></defs><sodipodi:namedview
     pagecolor="#ffffff"
     bordercolor="#666666"
     borderopacity="1"
     objecttolerance="10"
     gridtolerance="10"
     guidetolerance="10"
     inkscape:pageopacity="0"
     inkscape:pageshadow="2"
     inkscape:window-width="640"
     inkscape:window-height="480"
     id="namedview4" /><g
     id="g10"
     inkscape:groupmode="layer"
     inkscape:label="Vector Smart Object"
     transform="matrix(1.3333333,0,0,-1.3333333,0,176.04)"><g
       id="g12"><g
         id="g14"
         clip-path="url(#clipPath18)"><g
           id="g20"
           transform="translate(132.0304,66.0149)"><path
             d="m 0,0 c 0,-36.459 -29.556,-66.015 -66.015,-66.015 -36.459,0 -66.015,29.556 -66.015,66.015 0,36.46 29.556,66.016 66.015,66.016 C -29.556,66.016 0,36.46 0,0"
             style="fill:#e6328c;fill-opacity:1;fill-rule:nonzero;stroke:none"
             id="path22" /></g><g
           id="g24"
           transform="translate(101.0518,50.4173)"><path
             d="M 0,0 -34.733,-25.241 -70.298,0.604 c -6.752,4.907 -11.228,12.462 -11.866,20.784 -0.551,7.188 0.996,14.955 6.259,19.947 12.838,12.178 28.928,4.599 41.172,-6.748 10.865,9.697 23.63,18.336 37.261,9.667 C 7.304,41.216 9.793,35.709 11.19,30.35 14.162,18.956 9.525,6.922 0,0"
             style="fill:#ffffff;fill-opacity:1;fill-rule:nonzero;stroke:none"
             id="path26" /></g></g></g></g></svg>
