<svg xmlns="http://www.w3.org/2000/svg" width="213" height="34" viewBox="0 0 213 34">
  <defs>
    <style>
      .cls-1 {
        fill: #bbbcbd;
        fill-rule: evenodd;
      }
    </style>
  </defs>
  <path class="cls-1" d="M893.109,5496.51l1.378-1.38a0.515,0.515,0,0,1,.8.03,2.331,2.331,0,0,0,1.749.83c1.033,0,2.121-.83,2.121-2.63v-12.3a0.494,0.494,0,0,1,.5-0.49h2.491a0.5,0.5,0,0,1,.5.49v12.3a5.35,5.35,0,0,1-5.567,5.71,5.128,5.128,0,0,1-4.028-1.9A0.554,0.554,0,0,1,893.109,5496.51Zm30-16.2a9.381,9.381,0,1,1-9.515,9.4A9.44,9.44,0,0,1,923.112,5480.31Zm0,15.37a6,6,0,1,0-6.07-5.97A6.057,6.057,0,0,0,923.112,5495.68Zm24.2-5.65-6.043-8.71a0.48,0.48,0,0,1,.424-0.75h2.7a0.537,0.537,0,0,1,.424.23l4.241,6,4.241-6a0.536,0.536,0,0,1,.424-0.23h2.73a0.48,0.48,0,0,1,.424.75l-6.122,8.68v8.31a0.522,0.522,0,0,1-.5.5h-2.439a0.5,0.5,0,0,1-.5-0.5v-8.28Zm63.762-6.34h-4.05a0.493,0.493,0,0,1-.5-0.49v-2.14a0.493,0.493,0,0,1,.5-0.49h11.58a0.5,0.5,0,0,1,.51.49v2.14a0.5,0.5,0,0,1-.51.49h-4.05v14.62a0.524,0.524,0,0,1-.51.5h-2.46a0.524,0.524,0,0,1-.51-0.5v-14.62Zm26.75-3.38a9.381,9.381,0,1,1-9.52,9.4A9.439,9.439,0,0,1,1037.82,5480.31Zm0,15.37a6,6,0,1,0-6.07-5.97A6.051,6.051,0,0,0,1037.82,5495.68Zm19.18-14.49a0.457,0.457,0,0,1,.48-0.62h2.44a0.557,0.557,0,0,1,.48.36l2.75,10.4h0.11l4.21-10.74a0.445,0.445,0,0,1,.46-0.28h0.47a0.423,0.423,0,0,1,.45.28l4.24,10.74h0.11l2.7-10.4a0.557,0.557,0,0,1,.48-0.36h2.44a0.457,0.457,0,0,1,.48.62l-5.01,17.51a0.523,0.523,0,0,1-.48.37h-0.42a0.466,0.466,0,0,1-.46-0.29l-4.74-11.8h-0.13l-4.69,11.8a0.457,0.457,0,0,1-.46.29h-0.42a0.523,0.523,0,0,1-.48-0.37Zm33.35-.41a0.489,0.489,0,0,1,.5-0.47h0.66l11.03,11.51h0.02v-10.76a0.5,0.5,0,0,1,.51-0.49h2.44a0.513,0.513,0,0,1,.5.49v17.54a0.5,0.5,0,0,1-.5.47h-0.64l-11.08-11.96h-0.03v11.2a0.5,0.5,0,0,1-.5.5h-2.41a0.515,0.515,0,0,1-.5-0.5v-17.53Zm-100.491-5.91a2.134,2.134,0,0,0,2.882-.76,2.065,2.065,0,0,0-.774-2.84,2.2,2.2,0,0,0-1.05-.27,2.125,2.125,0,0,0-1.833,1.03A2.063,2.063,0,0,0,989.859,5474.87Zm8.5,20.26a2.123,2.123,0,0,0-2.883.76,2.026,2.026,0,0,0-.21,1.57,2.064,2.064,0,0,0,.984,1.26,2.123,2.123,0,0,0,2.883-.76A2.054,2.054,0,0,0,998.36,5495.13Zm-24.1,6a2.142,2.142,0,0,0-1.6-.21,2.122,2.122,0,0,0-1.281.97,2.053,2.053,0,0,0,.774,2.83,2.134,2.134,0,0,0,1.6.21,2.086,2.086,0,0,0,1.281-.97,2.022,2.022,0,0,0,.21-1.57A2.064,2.064,0,0,0,974.261,5501.13Zm-5.556-22.68a2.088,2.088,0,0,0-.984-1.26,2.172,2.172,0,0,0-1.051-.28,2.2,2.2,0,0,0-1.831,1.04,2.036,2.036,0,0,0-.21,1.58,2.088,2.088,0,0,0,.984,1.26,2.127,2.127,0,0,0,1.6.2,2.065,2.065,0,0,0,1.281-.96A2.036,2.036,0,0,0,968.705,5478.45Zm7.753,1.76,1.933,0.29a3.622,3.622,0,0,0,2.753-.73l1.536-1.2-2.209-2.94a2,2,0,0,0-.567-0.52,7.292,7.292,0,0,1-2.818.75,1.833,1.833,0,0,0-.212.7Zm13.278,2.37-0.292,1.92a3.493,3.493,0,0,0,.737,2.71l1.224,1.5,3-2.18a1.914,1.914,0,0,0,.519-0.54,7.044,7.044,0,0,1-.759-2.8,1.967,1.967,0,0,0-.706-0.2Zm-2.4,13.08-1.961-.29a3.658,3.658,0,0,0-2.753.72l-1.513,1.19,2.215,2.95a1.8,1.8,0,0,0,.563.51,7.272,7.272,0,0,1,2.82-.73,1.885,1.885,0,0,0,.215-0.71Zm-13.3-2.39,0.29-1.9a3.493,3.493,0,0,0-.737-2.71l-1.217-1.5-2.976,2.17a1.808,1.808,0,0,0-.539.57,7.013,7.013,0,0,1,.747,2.75,2.081,2.081,0,0,0,.737.22Zm-3.772-9.84,2.238,2.75,1.519-1.1a3.565,3.565,0,0,0,1.439-2.45l0.206-1.81-3.543-.52a1.709,1.709,0,0,0-1,.11l-0.029.01a7.117,7.117,0,0,1-1.228,2.08v0.01A1.621,1.621,0,0,0,970.256,5483.43Zm3.959-7.83a8.286,8.286,0,0,0-.981-0.15,1.5,1.5,0,0,0-1.262.83,1.694,1.694,0,0,0-.128.31,7.388,7.388,0,0,0-.082.8l-0.158,1.39a6.859,6.859,0,0,1-.137.79,2.944,2.944,0,0,1,.3-0.02,3.669,3.669,0,0,1,.456.04l3.515,0.52,0.413-3.63a2.959,2.959,0,0,1,.143-0.62,6.049,6.049,0,0,1-.736-0.07Zm-2.1,4.7,3.543,0.52,0.04-.36-1.39-.2-2.139-.32a2.367,2.367,0,0,0-.931.04c-0.014.05-.023,0.1-0.038,0.14-0.034.1-.08,0.2-0.119,0.3l0.029-.01A1.709,1.709,0,0,1,972.115,5480.3Zm0.054-.36,2.139,0.32,1.39,0.2,0.041-.35-3.515-.52a3.669,3.669,0,0,0-.456-0.04,2.944,2.944,0,0,0-.3.02,6.859,6.859,0,0,0,.137-0.79l0.158-1.39a7.388,7.388,0,0,1,.082-0.8,1.694,1.694,0,0,1,.128-0.31,1.5,1.5,0,0,1,1.262-.83,8.286,8.286,0,0,1,.981.15l1.344,0.19a6.049,6.049,0,0,0,.736.07c0.014-.03.023-0.08,0.038-0.11a7.444,7.444,0,0,1-.819-0.08h0l-1.428-.21a7.855,7.855,0,0,0-.826-0.12h0a1.851,1.851,0,0,0-.3.05,1.52,1.52,0,0,0-1.152,1.09,6.885,6.885,0,0,0-.119.77l-0.031.26-0.134,1.18a7.056,7.056,0,0,1-.277,1.29A2.367,2.367,0,0,1,972.169,5479.94Zm-3.212,8.81,2.953-2.14-2.222-2.74a2.674,2.674,0,0,1-.395-0.64,5.127,5.127,0,0,1-.625.51v0.01l-1.827,1.32a2.928,2.928,0,0,0-.169.24,1.662,1.662,0,0,0-.055,1.58l0.648,0.79h0l0.755,0.93q0.236,0.3.438,0.6A2.857,2.857,0,0,1,968.957,5488.75Zm2.364-3.44,0.881,1.08,0.292-.21-2.238-2.75a1.621,1.621,0,0,1-.4-0.92v-0.01c-0.059.07-.112,0.15-0.174,0.21-0.043.05-.091,0.09-0.135,0.14a2.223,2.223,0,0,0,.427.8Zm-4.057,2.37h0l-0.648-.79a1.662,1.662,0,0,1,.055-1.58,2.928,2.928,0,0,1,.169-0.24l1.827-1.32v-0.01a5.127,5.127,0,0,0,.625-0.51,2.674,2.674,0,0,0,.395.64l2.222,2.74,0.292-.22-0.881-1.08-1.35-1.66a2.223,2.223,0,0,1-.427-0.8,7.152,7.152,0,0,1-.967.85l-1.1.8c-0.256.17-.686,0.47-0.808,0.58a1.5,1.5,0,0,0-.3,1.48,1.9,1.9,0,0,0,.139.32c0.085,0.13.364,0.45,0.52,0.63l0.9,1.1a7.1,7.1,0,0,1,.477.66c0.017-.02.039-0.04,0.056-0.06q-0.2-.3-0.438-0.6Zm19.206-11.17-2.79,2.19,1.116,1.48a3.616,3.616,0,0,0,2.491,1.41l1.834,0.21,0.528-3.47a1.6,1.6,0,0,0-.116-0.99l-0.028-.05a7.429,7.429,0,0,1-2.068-1.18H987.4A1.581,1.581,0,0,0,986.47,5476.51Zm-5.414-1.3,2.192,2.91,2.77-2.17a2.724,2.724,0,0,1,.647-0.39,6.814,6.814,0,0,1-.519-0.62h0l-0.85-1.13c-0.155-.22-0.4-0.56-0.49-0.65a1.288,1.288,0,0,0-.254-0.18,1.544,1.544,0,0,0-1.579-.03c-0.327.21-.631,0.46-0.634,0.46l-0.2.17-0.008-.01-0.934.74q-0.288.225-.6,0.42A2.6,2.6,0,0,1,981.056,5475.21Zm3.5,2.34-1.09.86,0.216,0.29,2.79-2.19a1.581,1.581,0,0,1,.928-0.4h0.039c-0.079-.07-0.162-0.12-0.238-0.19-0.043-.04-0.081-0.08-0.123-0.12a2.235,2.235,0,0,0-.832.43Zm-2.426-3.98,0.008,0.01,0.2-.17s0.307-.25.634-0.46a1.544,1.544,0,0,1,1.579.03,1.288,1.288,0,0,1,.254.18c0.089,0.09.335,0.43,0.49,0.65l0.85,1.13h0a6.814,6.814,0,0,0,.519.62,2.724,2.724,0,0,0-.647.39l-2.77,2.17,0.216,0.29,1.09-.86,1.69-1.32a2.235,2.235,0,0,1,.832-0.43,7.956,7.956,0,0,1-.881-0.96l-1.408-1.88a1.789,1.789,0,0,0-1.5-.3c-0.086.03-.166,0.05-0.236,0.08l-1.847,1.45a6.153,6.153,0,0,1-.674.47c0.025,0.02.048,0.05,0.072,0.07q0.308-.195.6-0.42Zm12.451,5.86a1.665,1.665,0,0,0-.84-1.24c-0.076-.04-0.151-0.08-0.223-0.11l-2.327-.25a7.329,7.329,0,0,1-.8-0.14,2.682,2.682,0,0,1-.019.75l-0.523,3.44,3.7,0.4a3.624,3.624,0,0,1,.62.14,6.636,6.636,0,0,1,.07-0.7Zm-4.93-1.1-0.528,3.47,0.36,0.04,0.206-1.35,0.321-2.11a2.06,2.06,0,0,0-.044-0.93,0.621,0.621,0,0,1-.127-0.04c-0.113-.03-0.221-0.08-0.332-0.12l0.028,0.05A1.6,1.6,0,0,1,989.649,5478.33Zm0.359,0.05-0.321,2.11-0.206,1.35,0.363,0.04,0.523-3.44a2.682,2.682,0,0,0,.019-0.75,7.329,7.329,0,0,0,.8.14l2.327,0.25c0.072,0.03.147,0.07,0.223,0.11a1.665,1.665,0,0,1,.84,1.24l-0.349,2.29a6.636,6.636,0,0,0-.07.7,0.6,0.6,0,0,1,.127.04,7.39,7.39,0,0,1,.075-0.81h0l0.34-2.22a1.567,1.567,0,0,0-.054-0.29,1.714,1.714,0,0,0-1.1-1.17l-2.253-.25a7.418,7.418,0,0,1-1.327-.27A2.06,2.06,0,0,1,990.008,5478.38Zm3.5,14.06-2.231-2.74-1.5,1.08a3.569,3.569,0,0,0-1.439,2.45l-0.207,1.82,3.515,0.52a1.709,1.709,0,0,0,1-.11l0.062-.03a7.041,7.041,0,0,1,1.2-2.04l0-.04A1.6,1.6,0,0,0,993.506,5492.44Zm1.329-5.33-2.976,2.16,2.216,2.73a2.827,2.827,0,0,1,.394.63c0.2-.18.408-0.35,0.625-0.51h0l1.827-1.33a1.744,1.744,0,0,0,.169-0.23,1.663,1.663,0,0,0,.055-1.58l-0.648-.8h0l-0.755-.92c-0.153-.19-0.3-0.39-0.429-0.59A3.266,3.266,0,0,1,994.835,5487.11Zm-2.394,3.45-0.874-1.08-0.292.22,2.231,2.74a1.6,1.6,0,0,1,.4.91l0,0.04c0.068-.08.13-0.17,0.2-0.24a1.043,1.043,0,0,1,.111-0.11,2.1,2.1,0,0,0-.433-0.82Zm2.774,1.6,1.1-.8c0.255-.17.686-0.47,0.808-0.58a1.5,1.5,0,0,0,.3-1.48,1.544,1.544,0,0,0-.138-0.32c-0.085-.13-0.364-0.45-0.52-0.63l-0.9-1.1a7.108,7.108,0,0,1-.478-0.66,0.859,0.859,0,0,0-.076.08c0.133,0.2.276,0.4,0.429,0.59l0.755,0.92h0l0.648,0.8a1.663,1.663,0,0,1-.055,1.58,1.744,1.744,0,0,1-.169.23l-1.827,1.33h0c-0.217.16-.426,0.33-0.625,0.51a2.827,2.827,0,0,0-.394-0.63l-2.216-2.73-0.292.21,0.874,1.08,1.35,1.66a2.1,2.1,0,0,1,.433.82A7.329,7.329,0,0,1,995.215,5492.16Zm-5.668,8.11a8.286,8.286,0,0,0,.981.15,1.493,1.493,0,0,0,1.262-.83,1.528,1.528,0,0,0,.128-0.32,7.181,7.181,0,0,0,.082-0.79l0.159-1.4a7.076,7.076,0,0,1,.136-0.78,3.24,3.24,0,0,1-.757-0.02l-3.487-.52-0.411,3.62a2.992,2.992,0,0,1-.147.63q0.357,0.015.71,0.06Zm2.1-4.7-3.515-.52-0.04.36,1.362,0.2,2.139,0.31a2.167,2.167,0,0,0,.96-0.04c0.014-.05.023-0.1,0.039-0.14,0.035-.11.082-0.21,0.122-0.31l-0.062.03A1.709,1.709,0,0,1,991.647,5495.57Zm-0.054.35-2.139-.31-1.362-.2-0.041.35,3.487,0.52a3.24,3.24,0,0,0,.757.02,7.076,7.076,0,0,0-.136.78l-0.159,1.4a7.181,7.181,0,0,1-.082.79,1.528,1.528,0,0,1-.128.32,1.493,1.493,0,0,1-1.262.83,8.286,8.286,0,0,1-.981-0.15l-1.344-.2q-0.352-.045-0.71-0.06c-0.012.03-.021,0.07-0.035,0.1a7.439,7.439,0,0,1,.82.08h0l1.427,0.21a7.929,7.929,0,0,0,.826.12,1.874,1.874,0,0,0,.308-0.05,1.537,1.537,0,0,0,1.153-1.09,6.755,6.755,0,0,0,.118-0.77l0.032-.26,0.134-1.18a7.054,7.054,0,0,1,.276-1.29A2.167,2.167,0,0,1,991.593,5495.92Zm-14.3,3.44,2.813-2.21L979,5495.68a3.621,3.621,0,0,0-2.492-1.41l-1.862-.21-0.529,3.48a1.555,1.555,0,0,0,.116.98l0.015,0.03a7.411,7.411,0,0,1,2.119,1.21h0A1.645,1.645,0,0,0,977.292,5499.36Zm5.443,1.29-2.2-2.92-2.792,2.19a2.724,2.724,0,0,1-.647.39,7.021,7.021,0,0,1,.519.61h0l0.85,1.14c0.155,0.22.4,0.56,0.49,0.65a1.406,1.406,0,0,0,.254.17,1.523,1.523,0,0,0,1.579.04c0.327-.21.631-0.46,0.634-0.46l0.209-.17h0.007l0.928-.73c0.2-.15.406-0.3,0.619-0.43A2.931,2.931,0,0,1,982.735,5500.65Zm-3.527-2.34,1.113-.87-0.216-.29-2.813,2.21a1.645,1.645,0,0,1-.928.4h0c0.076,0.06.156,0.12,0.23,0.18,0.042,0.04.08,0.08,0.121,0.12a2.243,2.243,0,0,0,.8-0.42Zm2.432,3.98h-0.007l-0.209.17s-0.307.25-.634,0.46a1.523,1.523,0,0,1-1.579-.04,1.406,1.406,0,0,1-.254-0.17c-0.089-.09-0.335-0.43-0.49-0.65l-0.85-1.14h0a7.021,7.021,0,0,0-.519-0.61,2.724,2.724,0,0,0,.647-0.39l2.792-2.19-0.216-.29-1.113.87-1.69,1.33a2.243,2.243,0,0,1-.8.42,7.973,7.973,0,0,1,.883.96L979,5502.9a1.79,1.79,0,0,0,1.5.3,1.415,1.415,0,0,0,.236-0.09l1.847-1.44a6.442,6.442,0,0,1,.673-0.47c-0.027-.02-0.051-0.05-0.078-0.07-0.213.13-.42,0.28-0.619,0.43Zm-12.457-5.86a1.685,1.685,0,0,0,.84,1.25,1.2,1.2,0,0,0,.223.1l2.328,0.26a7.356,7.356,0,0,1,.8.13,2.65,2.65,0,0,1,.019-0.74l0.525-3.45-3.669-.4a3.1,3.1,0,0,1-.647-0.15,6.751,6.751,0,0,1-.072.72Zm4.93,1.11,0.529-3.48-0.359-.04-0.208,1.36-0.321,2.1a2.106,2.106,0,0,0,.04.92c0.053,0.02.108,0.03,0.161,0.05,0.1,0.03.192,0.07,0.289,0.1l-0.015-.03A1.555,1.555,0,0,1,974.113,5497.54Zm-0.359-.06,0.321-2.1,0.208-1.36-0.363-.04-0.525,3.45a2.65,2.65,0,0,0-.019.74,7.356,7.356,0,0,0-.8-0.13l-2.328-.26a1.2,1.2,0,0,1-.223-0.1,1.685,1.685,0,0,1-.84-1.25l0.349-2.28a6.751,6.751,0,0,0,.072-0.72l-0.1-.03a7.39,7.39,0,0,1-.075.81h0l-0.339,2.22a1.567,1.567,0,0,0,.053.29,1.719,1.719,0,0,0,1.106,1.17l2.252,0.25a7.038,7.038,0,0,1,1.293.26A2.106,2.106,0,0,1,973.754,5497.48Z" transform="translate(-893 -5471)"/>
</svg>
