<?xml version="1.0" encoding="UTF-8" standalone="no"?>
<svg
   xmlns:dc="http://purl.org/dc/elements/1.1/"
   xmlns:cc="http://creativecommons.org/ns#"
   xmlns:rdf="http://www.w3.org/1999/02/22-rdf-syntax-ns#"
   xmlns:svg="http://www.w3.org/2000/svg"
   xmlns="http://www.w3.org/2000/svg"
   xmlns:sodipodi="http://sodipodi.sourceforge.net/DTD/sodipodi-0.dtd"
   xmlns:inkscape="http://www.inkscape.org/namespaces/inkscape"
   version="1.1"
   id="svg2"
   xml:space="preserve"
   width="145.98933"
   height="217.57867"
   viewBox="0 0 145.98933 217.57867"
   sodipodi:docname="Vector Smart Object.ai"><metadata
     id="metadata8"><rdf:RDF><cc:Work
         rdf:about=""><dc:format>image/svg+xml</dc:format><dc:type
           rdf:resource="http://purl.org/dc/dcmitype/StillImage" /></cc:Work></rdf:RDF></metadata><defs
     id="defs6"><clipPath
       clipPathUnits="userSpaceOnUse"
       id="clipPath18"><path
         d="M 0,163.184 H 109.492 V 0 H 0 Z"
         id="path16" /></clipPath><linearGradient
       x1="0"
       y1="0"
       x2="1"
       y2="0"
       gradientUnits="userSpaceOnUse"
       gradientTransform="matrix(35.842205,-20.665832,-20.665832,-35.842205,27.326723,153.65695)"
       spreadMethod="pad"
       id="linearGradient82"><stop
         style="stop-opacity:1;stop-color:#91308a"
         offset="0"
         id="stop76" /><stop
         style="stop-opacity:1;stop-color:#91308a"
         offset="0.22172932"
         id="stop78" /><stop
         style="stop-opacity:1;stop-color:#4b1c87"
         offset="1"
         id="stop80" /></linearGradient><linearGradient
       x1="0"
       y1="0"
       x2="1"
       y2="0"
       gradientUnits="userSpaceOnUse"
       gradientTransform="matrix(35.783539,-20.632008,-20.632008,-35.783539,70.800217,128.55197)"
       spreadMethod="pad"
       id="linearGradient104"><stop
         style="stop-opacity:1;stop-color:#91308a"
         offset="0"
         id="stop98" /><stop
         style="stop-opacity:1;stop-color:#91308a"
         offset="0.22172932"
         id="stop100" /><stop
         style="stop-opacity:1;stop-color:#4b1c87"
         offset="1"
         id="stop102" /></linearGradient><linearGradient
       x1="0"
       y1="0"
       x2="1"
       y2="0"
       gradientUnits="userSpaceOnUse"
       gradientTransform="matrix(35.842247,-20.665857,-20.665857,-35.842247,45.675579,85.112221)"
       spreadMethod="pad"
       id="linearGradient126"><stop
         style="stop-opacity:1;stop-color:#91308a"
         offset="0"
         id="stop120" /><stop
         style="stop-opacity:1;stop-color:#91308a"
         offset="0.22172932"
         id="stop122" /><stop
         style="stop-opacity:1;stop-color:#4b1c87"
         offset="1"
         id="stop124" /></linearGradient><linearGradient
       x1="0"
       y1="0"
       x2="1"
       y2="0"
       gradientUnits="userSpaceOnUse"
       gradientTransform="matrix(35.783581,-20.63203,-20.63203,-35.783581,2.2607555,110.18338)"
       spreadMethod="pad"
       id="linearGradient148"><stop
         style="stop-opacity:1;stop-color:#91308a"
         offset="0"
         id="stop142" /><stop
         style="stop-opacity:1;stop-color:#91308a"
         offset="0.22172932"
         id="stop144" /><stop
         style="stop-opacity:1;stop-color:#4b1c87"
         offset="1"
         id="stop146" /></linearGradient><clipPath
       clipPathUnits="userSpaceOnUse"
       id="clipPath158"><path
         d="M 0,163.184 H 109.492 V 0 H 0 Z"
         id="path156" /></clipPath></defs><sodipodi:namedview
     pagecolor="#ffffff"
     bordercolor="#666666"
     borderopacity="1"
     objecttolerance="10"
     gridtolerance="10"
     guidetolerance="10"
     inkscape:pageopacity="0"
     inkscape:pageshadow="2"
     inkscape:window-width="640"
     inkscape:window-height="480"
     id="namedview4" /><g
     id="g10"
     inkscape:groupmode="layer"
     inkscape:label="Vector Smart Object"
     transform="matrix(1.3333333,0,0,-1.3333333,0,217.57867)"><g
       id="g12"><g
         id="g14"
         clip-path="url(#clipPath18)"><g
           id="g20"
           transform="translate(27.1373,29.6247)"><path
             d="M 0,0 1.229,1.252 C 1.488,1.488 1.725,1.441 1.937,1.229 2.245,0.897 2.718,0.472 3.497,0.472 4.42,0.472 5.39,1.229 5.39,2.859 v 11.159 c 0,0.235 0.188,0.449 0.448,0.449 h 2.223 c 0.259,0 0.449,-0.214 0.449,-0.449 V 2.859 c 0,-3.286 -2.199,-5.177 -4.965,-5.177 -2.057,0 -3.191,1.229 -3.594,1.726 C -0.166,-0.403 -0.144,-0.166 0,0"
             style="fill:#231916;fill-opacity:1;fill-rule:nonzero;stroke:none"
             id="path22" /></g><g
           id="g24"
           transform="translate(53.8941,30.3806)"><path
             d="m 0,0 c 2.979,0 5.437,2.434 5.437,5.413 0,2.979 -2.458,5.46 -5.437,5.46 -2.978,0 -5.412,-2.481 -5.412,-5.46 C -5.412,2.434 -2.978,0 0,0 m 0,13.946 c 4.729,0 8.511,-3.806 8.511,-8.533 0,-4.727 -3.782,-8.487 -8.511,-8.487 -4.728,0 -8.485,3.76 -8.485,8.487 0,4.727 3.757,8.533 8.485,8.533"
             style="fill:#231916;fill-opacity:1;fill-rule:nonzero;stroke:none"
             id="path26" /></g><g
           id="g28"
           transform="translate(75.4771,35.5105)"><path
             d="m 0,0 -5.391,7.895 c -0.189,0.306 0,0.686 0.379,0.686 h 2.41 c 0.19,0 0.308,-0.119 0.38,-0.214 L 1.56,2.931 5.342,8.367 c 0.07,0.095 0.189,0.214 0.378,0.214 h 2.435 c 0.377,0 0.568,-0.38 0.377,-0.686 L 3.073,0.022 v -7.54 c 0,-0.235 -0.214,-0.449 -0.451,-0.449 H 0.449 C 0.188,-7.967 0,-7.753 0,-7.518 Z"
             style="fill:#231916;fill-opacity:1;fill-rule:nonzero;stroke:none"
             id="path30" /></g><g
           id="g32"
           transform="translate(15.2457,13.948)"><path
             d="m 0,0 h -3.616 c -0.26,0 -0.449,0.213 -0.449,0.448 v 1.94 c 0,0.235 0.189,0.449 0.449,0.449 h 10.33 c 0.26,0 0.448,-0.214 0.448,-0.449 V 0.448 C 7.162,0.213 6.974,0 6.714,0 H 3.098 v -13.262 c 0,-0.235 -0.214,-0.449 -0.45,-0.449 H 0.449 C 0.213,-13.711 0,-13.497 0,-13.262 Z"
             style="fill:#231916;fill-opacity:1;fill-rule:nonzero;stroke:none"
             id="path34" /></g><g
           id="g36"
           transform="translate(39.0982,3.0749)"><path
             d="m 0,0 c 2.978,0 5.437,2.434 5.437,5.412 0,2.979 -2.459,5.461 -5.437,5.461 -2.979,0 -5.414,-2.482 -5.414,-5.461 C -5.414,2.434 -2.979,0 0,0 m 0,13.945 c 4.728,0 8.51,-3.806 8.51,-8.533 0,-4.727 -3.782,-8.487 -8.51,-8.487 -4.729,0 -8.486,3.76 -8.486,8.487 0,4.727 3.757,8.533 8.486,8.533"
             style="fill:#231916;fill-opacity:1;fill-rule:nonzero;stroke:none"
             id="path38" /></g><g
           id="g40"
           transform="translate(56.2105,16.2165)"><path
             d="m 0,0 c -0.095,0.33 0.096,0.568 0.426,0.568 h 2.175 c 0.188,0 0.378,-0.166 0.424,-0.332 l 2.459,-9.431 h 0.095 l 3.758,9.739 c 0.047,0.142 0.166,0.26 0.401,0.26 h 0.427 c 0.235,0 0.355,-0.118 0.401,-0.26 l 3.783,-9.739 h 0.094 l 2.412,9.431 c 0.046,0.166 0.235,0.332 0.425,0.332 h 2.175 c 0.33,0 0.52,-0.238 0.425,-0.568 l -4.467,-15.885 c -0.048,-0.188 -0.237,-0.332 -0.427,-0.332 h -0.377 c -0.213,0 -0.354,0.119 -0.402,0.261 L 9.977,-5.247 H 9.857 L 5.674,-15.956 C 5.602,-16.098 5.508,-16.217 5.271,-16.217 H 4.893 c -0.189,0 -0.377,0.144 -0.425,0.332 z"
             style="fill:#231916;fill-opacity:1;fill-rule:nonzero;stroke:none"
             id="path42" /></g><g
           id="g44"
           transform="translate(85.9469,16.5944)"><path
             d="m 0,0 c 0,0.237 0.213,0.426 0.449,0.426 h 0.592 l 9.833,-10.448 h 0.023 v 9.763 c 0,0.236 0.191,0.449 0.45,0.449 h 2.174 c 0.238,0 0.449,-0.213 0.449,-0.449 v -15.909 c 0,-0.236 -0.211,-0.427 -0.449,-0.427 H 12.953 L 3.072,-5.744 H 3.05 v -10.164 c 0,-0.236 -0.189,-0.449 -0.449,-0.449 H 0.449 C 0.213,-16.357 0,-16.144 0,-15.908 Z"
             style="fill:#231916;fill-opacity:1;fill-rule:nonzero;stroke:none"
             id="path46" /></g><g
           id="g48"
           transform="translate(86.0133,162.1657)"><path
             d="m 0,0 c 3.642,-2.1 4.892,-6.754 2.792,-10.396 -2.101,-3.641 -6.755,-4.891 -10.396,-2.792 -3.642,2.1 -4.892,6.754 -2.792,10.396 C -8.296,0.85 -3.642,2.1 0,0"
             style="fill:#ef8000;fill-opacity:1;fill-rule:nonzero;stroke:none"
             id="path50" /></g><g
           id="g52"
           transform="translate(105.6812,87.5046)"><path
             d="m 0,0 c 3.642,-2.1 4.892,-6.754 2.792,-10.396 -2.1,-3.641 -6.754,-4.891 -10.396,-2.792 -3.641,2.1 -4.891,6.754 -2.792,10.396 C -8.296,0.85 -3.642,2.1 0,0"
             style="fill:#00b0b6;fill-opacity:1;fill-rule:nonzero;stroke:none"
             id="path54" /></g><g
           id="g56"
           transform="translate(31.5347,68.7224)"><path
             d="m 0,0 c 3.642,-2.1 4.892,-6.754 2.792,-10.396 -2.1,-3.641 -6.754,-4.891 -10.396,-2.792 -3.641,2.1 -4.891,6.754 -2.792,10.396 C -8.296,0.85 -3.642,2.1 0,0"
             style="fill:#634f9f;fill-opacity:1;fill-rule:nonzero;stroke:none"
             id="path58" /></g><g
           id="g60"
           transform="translate(11.4146,143.6403)"><path
             d="m 0,0 c 3.642,-2.1 4.892,-6.754 2.792,-10.396 -2.1,-3.642 -6.754,-4.892 -10.396,-2.792 -3.641,2.1 -4.891,6.754 -2.792,10.396 C -8.296,0.85 -3.642,2.1 0,0"
             style="fill:#6bb82d;fill-opacity:1;fill-rule:nonzero;stroke:none"
             id="path62" /></g></g></g><g
       id="g64"><g
         id="g66"><g
           id="g72"><g
             id="g74"><path
               d="m 57.175,156.892 c -1.084,-0.697 -2.067,-1.525 -2.067,-1.525 v 0 c 0,0 -0.009,0.004 -0.014,-0.004 v 0 l -3.483,-2.785 c -1.138,-0.908 -2.347,-1.687 -3.625,-2.335 v 0 c -2.657,-1.351 -5.565,-2.132 -8.528,-2.29 v 0 c -1.431,-0.08 -2.88,-0.016 -4.321,0.2 v 0 l -4.135,0.619 c 0,0 -2.357,0.457 -3.155,0.478 v 0 c -1.977,0.052 -3.815,-1.308 -4.88,-3.153 v 0 c -0.184,-0.319 -0.437,-0.958 -0.516,-1.304 v 0 c -0.164,-0.734 -0.28,-2.673 -0.28,-2.673 v 0 l -0.48,-4.304 c -0.165,-1.447 -0.474,-2.856 -0.915,-4.222 v 0 c 1.028,0.525 2.288,0.693 3.765,0.466 v 0 l 6.582,-0.99 5.553,-0.833 0.215,-0.034 6.629,-0.985 c 3.322,-0.496 6.707,0.412 9.329,2.499 v 0 l 5.241,4.186 0.169,0.138 4.388,3.503 5.2,4.153 c 1.174,0.933 2.344,1.431 3.501,1.479 v 0 c -1.066,0.961 -2.04,2.025 -2.907,3.196 v 0 l -2.616,3.542 c 0,0 -1.135,1.68 -1.603,2.164 v 0 c -0.219,0.228 -0.658,0.526 -1.027,0.738 v 0 c -1.006,0.58 -2.114,0.881 -3.191,0.881 v 0 c -1.006,0 -1.985,-0.263 -2.829,-0.805"
               style="fill:url(#linearGradient82);stroke:none"
               id="path84" /></g></g></g></g><g
       id="g86"><g
         id="g88"><g
           id="g94"><g
             id="g96"><path
               d="m 79.429,138.942 -0.991,-6.581 -0.833,-5.554 -0.034,-0.215 -0.985,-6.628 c -0.496,-3.323 0.413,-6.707 2.5,-9.33 v 0 l 4.185,-5.239 0.137,-0.17 3.504,-4.388 4.153,-5.199 c 0.933,-1.176 1.431,-2.345 1.479,-3.501 v 0 c 0.962,1.065 2.025,2.038 3.196,2.906 v 0 l 3.542,2.617 2.164,1.601 0.014,0.004 0.004,0.008 c 0.27,0.314 0.507,0.647 0.719,1.016 v 0 c 1.123,1.945 1.098,4.227 0.153,6.079 v 0 c 0.006,0.008 -0.002,0.014 -0.002,0.014 v 0 l -0.009,0.004 -1.59,1.989 c 0,0 0.005,0.009 -0.004,0.015 v 0 l -2.785,3.483 c -0.908,1.137 -1.686,2.346 -2.335,3.625 v 0 c -1.35,2.656 -2.132,5.566 -2.29,8.528 v 0 c -0.08,1.431 -0.015,2.88 0.2,4.32 v 0 l 0.619,4.135 0.478,3.155 c -0.194,1.967 -1.308,3.816 -3.154,4.88 v 0 c -0.318,0.184 -0.651,0.342 -0.987,0.457 v 0 l -2.989,0.34 -4.304,0.481 c -1.448,0.164 -2.856,0.473 -4.222,0.914 v 0 c 0.525,-1.028 0.692,-2.287 0.467,-3.766"
               style="fill:url(#linearGradient104);stroke:none"
               id="path106" /></g></g></g></g><g
       id="g108"><g
         id="g110"><g
           id="g116"><g
             id="g118"><path
               d="M 55.994,84.387 50.755,80.2 50.586,80.063 46.197,76.559 40.998,72.406 c -1.174,-0.932 -2.345,-1.431 -3.501,-1.479 v 0 c 1.066,-0.96 2.039,-2.025 2.906,-3.196 v 0 l 2.617,-3.542 c 0,0 1.135,-1.679 1.602,-2.164 v 0 c 0.22,-0.227 0.658,-0.524 1.027,-0.737 v 0 c 1.947,-1.122 4.272,-1.199 6.021,-0.076 v 0 c 1.083,0.697 2.067,1.525 2.067,1.525 v 0 c 0,0 0.007,-0.005 0.013,0.003 v 0 l 3.483,2.786 c 1.138,0.908 2.347,1.686 3.626,2.334 v 0 c 2.656,1.352 5.565,2.133 8.527,2.29 v 0 c 1.432,0.081 2.881,0.016 4.32,-0.2 v 0 l 4.137,-0.619 c 0,0 2.357,-0.458 3.153,-0.477 v 0 c 1.977,-0.052 3.817,1.308 4.88,3.152 v 0 c 0.184,0.319 0.439,0.958 0.517,1.304 v 0 c 0.165,0.734 0.28,2.674 0.28,2.674 v 0 l 0.481,4.304 c 0.164,1.447 0.474,2.855 0.915,4.221 v 0 C 87.04,83.985 85.781,83.817 84.302,84.044 v 0 l -6.581,0.989 -5.553,0.833 -0.214,0.035 -6.629,0.983 c -0.597,0.09 -1.195,0.133 -1.79,0.133 v 0 c -2.723,0.001 -5.389,-0.919 -7.541,-2.63"
               style="fill:url(#linearGradient126);stroke:none"
               id="path128" /></g></g></g></g><g
       id="g130"><g
         id="g132"><g
           id="g138"><g
             id="g140"><path
               d="M 13.105,123.062 9.563,120.444 7.398,118.842 7.385,118.839 7.38,118.83 c -0.27,-0.313 -0.507,-0.646 -0.719,-1.015 v 0 c -1.122,-1.946 -1.097,-4.229 -0.154,-6.08 v 0 c -0.004,-0.009 0.005,-0.014 0.005,-0.014 v 0 l 0.007,-0.003 1.591,-1.991 c 0,0 -0.005,-0.009 0.003,-0.012 v 0 l 2.786,-3.483 c 0.908,-1.14 1.687,-2.348 2.334,-3.627 v 0 c 1.352,-2.656 2.133,-5.564 2.291,-8.527 v 0 c 0.079,-1.432 0.014,-2.881 -0.202,-4.32 v 0 l -0.617,-4.136 -0.479,-3.154 c 0.196,-1.968 1.309,-3.817 3.154,-4.881 v 0 c 0.319,-0.184 0.651,-0.342 0.988,-0.457 v 0 l 2.989,-0.338 4.304,-0.482 c 1.447,-0.164 2.855,-0.473 4.222,-0.915 v 0 c -0.525,1.029 -0.693,2.289 -0.466,3.767 v 0 l 0.989,6.58 0.834,5.554 0.034,0.214 0.984,6.63 c 0.497,3.322 -0.412,6.707 -2.499,9.328 v 0 l -4.185,5.242 -0.138,0.168 -3.503,4.389 -4.154,5.2 c -0.932,1.173 -1.43,2.344 -1.478,3.501 v 0 c -0.961,-1.067 -2.026,-2.04 -3.196,-2.906"
               style="fill:url(#linearGradient148);stroke:none"
               id="path150" /></g></g></g></g><g
       id="g152"><g
         id="g154"
         clip-path="url(#clipPath158)"><g
           id="g160"
           transform="translate(34.9957,148.5339)"><path
             d="m 0,0 -4.394,0.66 c 0,0 -2.006,0.389 -2.685,0.401 -0.318,0.005 -0.844,-0.095 -1.259,-0.207 -2.187,-0.587 -3.902,-2.191 -4.348,-4.24 -0.276,-1.27 -0.386,-2.561 -0.386,-2.561 0,0 -0.01,-0.003 -0.007,-0.012 l -0.498,-4.472 c -0.164,-1.459 -0.471,-2.876 -0.921,-4.251 -0.931,-2.858 -2.448,-5.49 -4.448,-7.715 -0.965,-1.078 -2.044,-2.066 -3.225,-2.939 l -3.391,-2.508 c 0,0 -2.007,-1.355 -2.591,-1.909 -1.446,-1.373 -1.788,-3.655 -1.232,-5.729 0.097,-0.359 0.371,-0.996 0.563,-1.298 0.405,-0.642 1.707,-2.107 1.707,-2.107 l 2.726,-3.413 c 0.741,-0.929 1.395,-1.908 1.967,-2.93 0.156,-0.281 0.551,-0.286 0.698,10e-4 0.426,0.825 1.105,1.592 2.047,2.284 l 5.401,3.988 4.554,3.367 0.178,0.128 5.43,4.026 c 2.724,2.016 4.49,5.079 4.872,8.437 l 0.752,6.723 0.022,0.218 0.632,5.629 0.746,6.671 C 3.044,-2.596 3.361,-1.62 3.864,-0.84 4.038,-0.569 3.837,-0.229 3.516,-0.233 2.347,-0.251 1.173,-0.175 0,0"
             style="fill:#6bb82d;fill-opacity:1;fill-rule:nonzero;stroke:none"
             id="path162" /></g><g
           id="g164"
           transform="translate(93.9293,128.5407)"><path
             d="M 0,0 0.66,4.394 1.061,7.079 1.067,7.092 1.065,7.101 C 1.034,7.518 0.966,7.923 0.854,8.338 c -0.587,2.188 -2.233,3.799 -4.227,4.446 -0.003,0.009 -0.012,0.007 -0.012,0.007 l -0.01,-0.003 -2.553,0.285 c 0,0 -0.002,0.009 -0.012,0.007 l -4.471,0.497 c -1.46,0.165 -2.877,0.472 -4.251,0.921 -2.858,0.932 -5.49,2.448 -7.715,4.449 -1.079,0.964 -2.066,2.044 -2.939,3.225 l -2.508,3.39 -1.874,2.543 c -0.023,0.033 -0.052,0.062 -0.082,0.086 -1.539,1.237 -3.629,1.746 -5.682,1.194 -0.359,-0.096 -0.71,-0.221 -1.032,-0.378 L -38.888,27.116 -42.3,24.39 c -0.93,-0.741 -1.909,-1.395 -2.931,-1.967 -0.281,-0.157 -0.285,-0.552 0.001,-0.698 0.826,-0.426 1.592,-1.106 2.285,-2.048 l 3.988,-5.4 3.366,-4.555 0.129,-0.178 4.026,-5.43 c 2.016,-2.723 5.079,-4.489 8.436,-4.872 l 6.724,-0.752 0.217,-0.022 5.63,-0.631 6.67,-0.746 c 1.163,-0.134 2.139,-0.451 2.919,-0.954 0.271,-0.174 0.611,0.026 0.606,0.348 C -0.251,-2.346 -0.175,-1.173 0,0"
             style="fill:#ef8000;fill-opacity:1;fill-rule:nonzero;stroke:none"
             id="path166" /></g><g
           id="g168"
           transform="translate(73.94,69.5944)"><path
             d="m 0,0 4.394,-0.66 c 0,0 2.006,-0.39 2.685,-0.402 0.318,-0.005 0.844,0.095 1.259,0.208 2.187,0.586 3.902,2.191 4.348,4.239 0.276,1.27 0.386,2.562 0.386,2.562 0,0 0.01,0.002 0.007,0.012 l 0.498,4.471 c 0.164,1.46 0.471,2.877 0.921,4.251 0.931,2.858 2.448,5.49 4.448,7.715 0.965,1.079 2.044,2.066 3.225,2.939 l 3.391,2.509 c 0,0 2.007,1.354 2.591,1.909 1.446,1.373 1.788,3.654 1.232,5.729 -0.097,0.359 -0.371,0.996 -0.563,1.298 -0.405,0.641 -1.707,2.107 -1.707,2.107 l -2.726,3.412 c -0.741,0.93 -1.395,1.909 -1.967,2.931 -0.156,0.281 -0.551,0.285 -0.698,-10e-4 -0.425,-0.826 -1.105,-1.592 -2.047,-2.285 L 14.276,38.957 9.722,35.59 9.544,35.461 4.114,31.435 C 1.39,29.419 -0.376,26.357 -0.758,22.999 L -1.51,16.275 -1.532,16.058 -2.164,10.429 -2.91,3.758 C -3.044,2.595 -3.361,1.619 -3.863,0.839 -4.038,0.568 -3.837,0.229 -3.516,0.233 -2.347,0.25 -1.173,0.174 0,0"
             style="fill:#00b0b6;fill-opacity:1;fill-rule:nonzero;stroke:none"
             id="path170" /></g><g
           id="g172"
           transform="translate(15.0064,89.5866)"><path
             d="m 0,0 -0.66,-4.394 -0.401,-2.685 -0.006,-0.012 0.002,-0.01 c 0.031,-0.416 0.099,-0.822 0.211,-1.237 0.587,-2.187 2.233,-3.798 4.227,-4.445 0.003,-0.01 0.012,-0.007 0.012,-0.007 l 0.01,0.002 2.553,-0.284 c 0,0 0.002,-0.01 0.012,-0.007 l 4.471,-0.498 c 1.46,-0.164 2.877,-0.471 4.251,-0.921 2.858,-0.931 5.49,-2.448 7.715,-4.448 1.079,-0.965 2.066,-2.044 2.939,-3.225 l 2.508,-3.391 1.874,-2.542 c 0.023,-0.033 0.052,-0.062 0.082,-0.087 1.539,-1.237 3.629,-1.746 5.682,-1.194 0.359,0.097 0.71,0.221 1.032,0.378 l 2.374,1.892 3.412,2.726 c 0.929,0.741 1.909,1.395 2.931,1.967 0.281,0.156 0.285,0.551 -0.001,0.698 -0.826,0.425 -1.592,1.105 -2.285,2.047 l -3.988,5.401 -3.366,4.554 -0.129,0.178 -4.026,5.43 C 29.42,-1.39 26.357,0.376 23,0.758 L 16.276,1.51 16.059,1.532 10.429,2.164 3.759,2.91 C 2.596,3.044 1.62,3.361 0.84,3.864 0.569,4.038 0.229,3.837 0.234,3.516 0.251,2.347 0.175,1.173 0,0"
             style="fill:#d9007f;fill-opacity:1;fill-rule:nonzero;stroke:none"
             id="path174" /></g></g></g></g></svg>
