<?xml version="1.0" encoding="UTF-8" standalone="no"?>
<svg
   xmlns:dc="http://purl.org/dc/elements/1.1/"
   xmlns:cc="http://creativecommons.org/ns#"
   xmlns:rdf="http://www.w3.org/1999/02/22-rdf-syntax-ns#"
   xmlns:svg="http://www.w3.org/2000/svg"
   xmlns="http://www.w3.org/2000/svg"
   xmlns:sodipodi="http://sodipodi.sourceforge.net/DTD/sodipodi-0.dtd"
   xmlns:inkscape="http://www.inkscape.org/namespaces/inkscape"
   version="1.1"
   id="svg2"
   xml:space="preserve"
   width="781.88666"
   height="149.468"
   viewBox="0 0 781.88666 149.468"
   sodipodi:docname="logo-joytown.ai"><metadata
     id="metadata8"><rdf:RDF><cc:Work
         rdf:about=""><dc:format>image/svg+xml</dc:format><dc:type
           rdf:resource="http://purl.org/dc/dcmitype/StillImage" /></cc:Work></rdf:RDF></metadata><defs
     id="defs6"><clipPath
       clipPathUnits="userSpaceOnUse"
       id="clipPath18"><path
         d="M 0,112.101 H 586.415 V 0 H 0 Z"
         id="path16" /></clipPath><linearGradient
       x1="0"
       y1="0"
       x2="1"
       y2="0"
       gradientUnits="userSpaceOnUse"
       gradientTransform="matrix(32.066261,-18.488707,-18.488707,-32.066261,220.49278,88.696678)"
       spreadMethod="pad"
       id="linearGradient82"><stop
         style="stop-opacity:1;stop-color:#91308a"
         offset="0"
         id="stop76" /><stop
         style="stop-opacity:1;stop-color:#91308a"
         offset="0.22172932"
         id="stop78" /><stop
         style="stop-opacity:1;stop-color:#4b1c87"
         offset="1"
         id="stop80" /></linearGradient><linearGradient
       x1="0"
       y1="0"
       x2="1"
       y2="0"
       gradientUnits="userSpaceOnUse"
       gradientTransform="matrix(32.013775,-18.458445,-18.458445,-32.013775,259.38638,66.236481)"
       spreadMethod="pad"
       id="linearGradient104"><stop
         style="stop-opacity:1;stop-color:#91308a"
         offset="0"
         id="stop98" /><stop
         style="stop-opacity:1;stop-color:#91308a"
         offset="0.22172932"
         id="stop100" /><stop
         style="stop-opacity:1;stop-color:#4b1c87"
         offset="1"
         id="stop102" /></linearGradient><linearGradient
       x1="0"
       y1="0"
       x2="1"
       y2="0"
       gradientUnits="userSpaceOnUse"
       gradientTransform="matrix(32.066303,-18.488729,-18.488729,-32.066303,236.9086,27.373072)"
       spreadMethod="pad"
       id="linearGradient126"><stop
         style="stop-opacity:1;stop-color:#91308a"
         offset="0"
         id="stop120" /><stop
         style="stop-opacity:1;stop-color:#91308a"
         offset="0.22172932"
         id="stop122" /><stop
         style="stop-opacity:1;stop-color:#4b1c87"
         offset="1"
         id="stop124" /></linearGradient><linearGradient
       x1="0"
       y1="0"
       x2="1"
       y2="0"
       gradientUnits="userSpaceOnUse"
       gradientTransform="matrix(32.013813,-18.458466,-18.458466,-32.013813,198.06749,49.803005)"
       spreadMethod="pad"
       id="linearGradient148"><stop
         style="stop-opacity:1;stop-color:#91308a"
         offset="0"
         id="stop142" /><stop
         style="stop-opacity:1;stop-color:#91308a"
         offset="0.22172932"
         id="stop144" /><stop
         style="stop-opacity:1;stop-color:#4b1c87"
         offset="1"
         id="stop146" /></linearGradient><clipPath
       clipPathUnits="userSpaceOnUse"
       id="clipPath158"><path
         d="M 0,112.101 H 586.415 V 0 H 0 Z"
         id="path156" /></clipPath></defs><sodipodi:namedview
     pagecolor="#ffffff"
     bordercolor="#666666"
     borderopacity="1"
     objecttolerance="10"
     gridtolerance="10"
     guidetolerance="10"
     inkscape:pageopacity="0"
     inkscape:pageshadow="2"
     inkscape:window-width="640"
     inkscape:window-height="480"
     id="namedview4" /><g
     id="g10"
     inkscape:groupmode="layer"
     inkscape:label="logo-joytown"
     transform="matrix(1.3333333,0,0,-1.3333333,0,149.468)"><g
       id="g12"><g
         id="g14"
         clip-path="url(#clipPath18)"><g
           id="g20"
           transform="translate(0.3794,24.7637)"><path
             d="m 0,0 3.793,3.866 c 0.804,0.73 1.532,0.585 2.19,-0.072 0.949,-1.023 2.408,-2.335 4.815,-2.335 2.845,0 5.838,2.335 5.838,7.369 v 34.438 c 0,0.729 0.583,1.386 1.386,1.386 h 6.857 c 0.803,0 1.386,-0.657 1.386,-1.386 V 8.828 c 0,-10.141 -6.784,-15.978 -15.322,-15.978 -6.346,0 -9.85,3.793 -11.089,5.326 C -0.511,-1.241 -0.438,-0.512 0,0"
             style="fill:#231916;fill-opacity:1;fill-rule:nonzero;stroke:none"
             id="path22" /></g><g
           id="g24"
           transform="translate(82.9664,27.0986)"><path
             d="M 0,0 C 9.191,0 16.781,7.515 16.781,16.708 16.781,25.9 9.191,33.561 0,33.561 -9.194,33.561 -16.708,25.9 -16.708,16.708 -16.708,7.515 -9.194,0 0,0 M 0,43.046 C 14.591,43.046 26.265,31.3 26.265,16.708 26.265,2.116 14.591,-9.485 0,-9.485 c -14.594,0 -26.193,11.601 -26.193,26.193 0,14.592 11.599,26.338 26.193,26.338"
             style="fill:#231916;fill-opacity:1;fill-rule:nonzero;stroke:none"
             id="path26" /></g><g
           id="g28"
           transform="translate(149.5684,42.9302)"><path
             d="m 0,0 -16.634,24.37 c -0.583,0.948 0,2.115 1.167,2.115 h 7.442 c 0.583,0 0.948,-0.365 1.168,-0.656 L 4.817,9.047 16.491,25.829 c 0.217,0.291 0.583,0.656 1.166,0.656 h 7.514 c 1.169,0 1.752,-1.167 1.169,-2.115 L 9.486,0.074 v -23.275 c 0,-0.73 -0.657,-1.386 -1.386,-1.386 H 1.386 C 0.585,-24.587 0,-23.931 0,-23.201 Z"
             style="fill:#231916;fill-opacity:1;fill-rule:nonzero;stroke:none"
             id="path30" /></g><g
           id="g32"
           transform="translate(325.0933,60.6597)"><path
             d="m 0,0 h -11.164 c -0.803,0 -1.386,0.657 -1.386,1.386 V 7.37 c 0,0.729 0.583,1.386 1.386,1.386 H 20.72 c 0.802,0 1.385,-0.657 1.385,-1.386 V 1.386 C 22.105,0.657 21.522,0 20.72,0 H 9.557 v -40.931 c 0,-0.729 -0.657,-1.386 -1.387,-1.386 H 1.386 C 0.655,-42.317 0,-41.66 0,-40.931 Z"
             style="fill:#231916;fill-opacity:1;fill-rule:nonzero;stroke:none"
             id="path34" /></g><g
           id="g36"
           transform="translate(398.7017,27.0986)"><path
             d="M 0,0 C 9.193,0 16.781,7.515 16.781,16.708 16.781,25.9 9.193,33.561 0,33.561 -9.191,33.561 -16.706,25.9 -16.706,16.708 -16.706,7.515 -9.191,0 0,0 M 0,43.046 C 14.594,43.046 26.268,31.3 26.268,16.708 26.268,2.116 14.594,-9.485 0,-9.485 c -14.592,0 -26.192,11.601 -26.192,26.193 0,14.592 11.6,26.338 26.192,26.338"
             style="fill:#231916;fill-opacity:1;fill-rule:nonzero;stroke:none"
             id="path38" /></g><g
           id="g40"
           transform="translate(451.5201,67.6636)"><path
             d="m 0,0 c -0.293,1.022 0.29,1.752 1.312,1.752 h 6.713 c 0.583,0 1.166,-0.511 1.314,-1.023 l 7.587,-29.11 h 0.291 l 11.6,30.059 c 0.148,0.438 0.511,0.803 1.242,0.803 h 1.313 c 0.729,0 1.094,-0.365 1.239,-0.803 l 11.674,-30.059 h 0.293 l 7.442,29.11 c 0.145,0.512 0.728,1.023 1.314,1.023 h 6.711 c 1.021,0 1.606,-0.73 1.313,-1.752 l -13.79,-49.029 c -0.145,-0.583 -0.728,-1.021 -1.311,-1.021 h -1.169 c -0.655,0 -1.094,0.364 -1.241,0.802 l -13.06,33.051 H 30.424 L 17.509,-49.248 c -0.218,-0.438 -0.51,-0.802 -1.24,-0.802 h -1.167 c -0.583,0 -1.168,0.438 -1.314,1.021 z"
             style="fill:#231916;fill-opacity:1;fill-rule:nonzero;stroke:none"
             id="path42" /></g><g
           id="g44"
           transform="translate(543.2935,68.8311)"><path
             d="m 0,0 c 0,0.729 0.658,1.314 1.387,1.314 h 1.824 l 30.352,-32.249 h 0.072 v 30.133 c 0,0.73 0.586,1.386 1.386,1.386 h 6.714 c 0.728,0 1.386,-0.656 1.386,-1.386 v -49.103 c 0,-0.73 -0.658,-1.313 -1.386,-1.313 H 39.983 L 9.486,-17.73 H 9.412 v -31.372 c 0,-0.73 -0.584,-1.386 -1.387,-1.386 H 1.387 C 0.658,-50.488 0,-49.832 0,-49.102 Z"
             style="fill:#231916;fill-opacity:1;fill-rule:nonzero;stroke:none"
             id="path46" /></g><g
           id="g48"
           transform="translate(272.9966,96.3086)"><path
             d="m 0,0 c 3.258,-1.878 4.376,-6.042 2.498,-9.3 -1.879,-3.258 -6.043,-4.377 -9.301,-2.498 -3.258,1.879 -4.376,6.042 -2.498,9.3 C -7.422,0.76 -3.258,1.878 0,0"
             style="fill:#ef8000;fill-opacity:1;fill-rule:nonzero;stroke:none"
             id="path50" /></g><g
           id="g52"
           transform="translate(290.5928,29.5132)"><path
             d="m 0,0 c 3.258,-1.878 4.376,-6.042 2.498,-9.3 -1.879,-3.259 -6.043,-4.377 -9.301,-2.498 -3.258,1.878 -4.376,6.042 -2.498,9.3 C -7.422,0.76 -3.258,1.878 0,0"
             style="fill:#00b0b6;fill-opacity:1;fill-rule:nonzero;stroke:none"
             id="path54" /></g><g
           id="g56"
           transform="translate(224.2578,12.7095)"><path
             d="m 0,0 c 3.258,-1.878 4.376,-6.042 2.498,-9.3 -1.879,-3.258 -6.043,-4.377 -9.301,-2.498 -3.258,1.879 -4.376,6.043 -2.497,9.3 C -7.422,0.76 -3.258,1.879 0,0"
             style="fill:#634f9f;fill-opacity:1;fill-rule:nonzero;stroke:none"
             id="path58" /></g><g
           id="g60"
           transform="translate(206.2569,79.7349)"><path
             d="m 0,0 c 3.258,-1.878 4.376,-6.042 2.498,-9.3 -1.879,-3.258 -6.043,-4.377 -9.301,-2.498 -3.258,1.879 -4.376,6.042 -2.497,9.3 C -7.422,0.76 -3.258,1.878 0,0"
             style="fill:#6bb82d;fill-opacity:1;fill-rule:nonzero;stroke:none"
             id="path62" /></g></g></g><g
       id="g64"><g
         id="g66"><g
           id="g72"><g
             id="g74"><path
               d="m 247.197,91.59 c -0.97,-0.623 -1.85,-1.364 -1.85,-1.364 v 0 c 0,0 -0.008,0.004 -0.012,-0.003 v 0 l -3.115,-2.492 c -1.019,-0.813 -2.1,-1.508 -3.245,-2.089 v 0 c -2.377,-1.208 -4.979,-1.907 -7.629,-2.049 v 0 c -1.281,-0.071 -2.577,-0.013 -3.866,0.18 v 0 l -3.699,0.553 c 0,0 -2.109,0.41 -2.823,0.428 v 0 c -1.768,0.046 -3.414,-1.17 -4.365,-2.821 v 0 c -0.165,-0.285 -0.391,-0.856 -0.462,-1.166 v 0 c -0.147,-0.657 -0.25,-2.392 -0.25,-2.392 v 0 l -0.431,-3.85 c -0.147,-1.296 -0.423,-2.556 -0.818,-3.778 v 0 c 0.921,0.47 2.047,0.619 3.37,0.417 v 0 l 5.887,-0.885 4.968,-0.746 0.192,-0.03 5.931,-0.881 c 2.973,-0.444 6.001,0.369 8.347,2.236 v 0 l 4.688,3.745 0.151,0.122 3.927,3.135 4.651,3.716 c 1.051,0.833 2.098,1.28 3.132,1.322 v 0 c -0.953,0.86 -1.824,1.813 -2.6,2.859 v 0 l -2.341,3.17 c 0,0 -1.015,1.502 -1.434,1.936 v 0 c -0.196,0.203 -0.588,0.47 -0.919,0.66 v 0 c -0.9,0.519 -1.89,0.788 -2.854,0.788 v 0 c -0.9,0 -1.776,-0.235 -2.531,-0.721"
               style="fill:url(#linearGradient82);stroke:none"
               id="path84" /></g></g></g></g><g
       id="g86"><g
         id="g88"><g
           id="g94"><g
             id="g96"><path
               d="m 267.105,75.532 -0.885,-5.888 -0.746,-4.968 -0.031,-0.193 -0.88,-5.93 c -0.445,-2.973 0.369,-6.001 2.236,-8.347 v 0 l 3.745,-4.688 0.122,-0.151 3.135,-3.926 3.716,-4.652 c 0.833,-1.051 1.28,-2.098 1.323,-3.133 v 0 c 0.859,0.955 1.811,1.826 2.858,2.601 v 0 l 3.17,2.341 1.936,1.433 0.012,0.004 0.004,0.007 c 0.241,0.281 0.454,0.579 0.644,0.909 v 0 c 1.003,1.74 0.981,3.783 0.136,5.439 v 0 c 0.005,0.008 -0.002,0.012 -0.002,0.012 v 0 l -0.008,0.004 -1.423,1.78 c 0,0 0.004,0.007 -0.003,0.012 v 0 l -2.492,3.116 c -0.813,1.018 -1.509,2.099 -2.088,3.244 v 0 c -1.21,2.376 -1.908,4.979 -2.049,7.629 v 0 c -0.071,1.281 -0.014,2.577 0.179,3.865 v 0 l 0.553,3.7 0.429,2.822 c -0.176,1.761 -1.171,3.414 -2.822,4.366 v 0 c -0.285,0.165 -0.583,0.307 -0.884,0.41 v 0 l -2.675,0.302 -3.85,0.431 c -1.295,0.147 -2.555,0.423 -3.776,0.818 v 0 c 0.469,-0.921 0.618,-2.046 0.416,-3.369"
               style="fill:url(#linearGradient104);stroke:none"
               id="path106" /></g></g></g></g><g
       id="g108"><g
         id="g110"><g
           id="g116"><g
             id="g118"><path
               d="m 246.141,26.723 -4.688,-3.744 -0.151,-0.124 -3.927,-3.134 -4.651,-3.715 c -1.051,-0.834 -2.098,-1.28 -3.133,-1.324 v 0 c 0.954,-0.86 1.825,-1.811 2.601,-2.859 v 0 l 2.341,-3.169 c 0,0 1.015,-1.503 1.433,-1.935 v 0 c 0.196,-0.204 0.589,-0.47 0.919,-0.661 v 0 c 1.74,-1.004 3.822,-1.073 5.386,-0.068 v 0 c 0.97,0.624 1.849,1.365 1.849,1.365 v 0 c 0,0 0.008,-0.005 0.012,0.002 v 0 l 3.117,2.493 c 1.018,0.812 2.1,1.508 3.243,2.089 v 0 c 2.376,1.208 4.979,1.907 7.63,2.048 v 0 c 1.28,0.072 2.576,0.014 3.864,-0.179 v 0 l 3.7,-0.554 c 0,0 2.109,-0.409 2.823,-0.427 v 0 c 1.768,-0.046 3.414,1.171 4.366,2.821 v 0 c 0.164,0.285 0.391,0.857 0.461,1.167 v 0 c 0.149,0.656 0.25,2.391 0.25,2.391 v 0 l 0.431,3.851 c 0.147,1.294 0.424,2.554 0.819,3.776 v 0 c -0.921,-0.468 -2.048,-0.619 -3.37,-0.416 v 0 l -5.888,0.885 -4.968,0.746 -0.192,0.03 -5.93,0.88 c -0.534,0.08 -1.069,0.119 -1.601,0.119 v 0 c -2.437,0 -4.821,-0.822 -6.746,-2.354"
               style="fill:url(#linearGradient126);stroke:none"
               id="path128" /></g></g></g></g><g
       id="g130"><g
         id="g132"><g
           id="g138"><g
             id="g140"><path
               d="m 207.77,61.323 -3.17,-2.341 -1.936,-1.432 -0.012,-0.004 -0.004,-0.007 c -0.242,-0.281 -0.454,-0.579 -0.644,-0.908 v 0 c -1.003,-1.741 -0.982,-3.783 -0.138,-5.44 v 0 c -0.003,-0.007 0.004,-0.012 0.004,-0.012 v 0 l 0.007,-0.004 1.423,-1.78 c 0,0 -0.004,-0.008 0.004,-0.012 v 0 l 2.492,-3.116 c 0.812,-1.019 1.508,-2.1 2.089,-3.243 v 0 c 1.208,-2.377 1.907,-4.979 2.048,-7.63 v 0 c 0.071,-1.28 0.014,-2.577 -0.179,-3.866 v 0 l -0.553,-3.699 -0.429,-2.822 c 0.176,-1.76 1.171,-3.414 2.822,-4.366 v 0 c 0.285,-0.164 0.583,-0.306 0.883,-0.41 v 0 l 2.675,-0.302 3.85,-0.43 c 1.296,-0.147 2.555,-0.424 3.778,-0.819 v 0 c -0.47,0.92 -0.62,2.047 -0.417,3.369 v 0 l 0.885,5.888 0.745,4.968 0.031,0.193 0.881,5.93 c 0.443,2.972 -0.369,6.001 -2.236,8.346 v 0 l -3.745,4.689 -0.122,0.151 -3.135,3.926 -3.716,4.652 c -0.834,1.051 -1.28,2.097 -1.323,3.132 v 0 c -0.86,-0.954 -1.812,-1.824 -2.858,-2.601"
               style="fill:url(#linearGradient148);stroke:none"
               id="path150" /></g></g></g></g><g
       id="g152"><g
         id="g154"
         clip-path="url(#clipPath158)"><g
           id="g160"
           transform="translate(227.354,84.1133)"><path
             d="m 0,0 -3.931,0.591 c 0,0 -1.795,0.347 -2.402,0.358 -0.286,0.006 -0.755,-0.085 -1.126,-0.185 -1.958,-0.525 -3.492,-1.96 -3.891,-3.793 -0.247,-1.137 -0.345,-2.292 -0.345,-2.292 0,0 -0.009,-0.002 -0.007,-0.011 l -0.445,-4 c -0.147,-1.305 -0.421,-2.573 -0.824,-3.803 -0.833,-2.557 -2.19,-4.911 -3.98,-6.903 -0.862,-0.964 -1.828,-1.847 -2.885,-2.629 l -3.033,-2.244 c 0,0 -1.797,-1.212 -2.318,-1.708 -1.294,-1.228 -1.601,-3.269 -1.102,-5.126 0.086,-0.32 0.331,-0.89 0.503,-1.161 0.362,-0.574 1.527,-1.884 1.527,-1.884 l 2.439,-3.053 c 0.662,-0.832 1.248,-1.708 1.759,-2.623 0.141,-0.25 0.494,-0.254 0.625,10e-4 0.381,0.739 0.989,1.425 1.832,2.044 l 4.831,3.568 4.075,3.012 0.159,0.115 4.858,3.602 c 2.437,1.804 4.017,4.543 4.359,7.548 l 0.673,6.014 0.02,0.196 0.565,5.036 0.667,5.968 c 0.12,1.04 0.404,1.913 0.854,2.611 0.155,0.242 -0.024,0.546 -0.312,0.542 C 2.099,-0.224 1.049,-0.156 0,0"
             style="fill:#6bb82d;fill-opacity:1;fill-rule:nonzero;stroke:none"
             id="path162" /></g><g
           id="g164"
           transform="translate(280.0786,66.2266)"><path
             d="M 0,0 0.59,3.931 0.949,6.333 0.955,6.344 0.953,6.353 C 0.925,6.725 0.864,7.088 0.764,7.459 c -0.525,1.958 -1.998,3.399 -3.782,3.978 -0.002,0.008 -0.01,0.006 -0.01,0.006 l -0.009,-0.002 -2.284,0.255 c 0,0 -0.002,0.008 -0.011,0.006 l -4,0.445 c -1.305,0.147 -2.573,0.421 -3.803,0.824 -2.557,0.833 -4.912,2.19 -6.903,3.98 -0.964,0.862 -1.848,1.828 -2.629,2.885 l -2.244,3.033 -1.676,2.275 c -0.021,0.029 -0.046,0.055 -0.074,0.077 -1.376,1.107 -3.246,1.562 -5.084,1.068 -0.32,-0.086 -0.634,-0.198 -0.922,-0.338 l -2.124,-1.692 -3.053,-2.439 c -0.831,-0.662 -1.707,-1.248 -2.622,-1.759 -0.251,-0.141 -0.254,-0.494 10e-4,-0.625 0.739,-0.381 1.425,-0.989 2.044,-1.832 l 3.568,-4.831 3.012,-4.075 0.115,-0.159 3.602,-4.858 c 1.803,-2.437 4.543,-4.017 7.547,-4.359 l 6.015,-0.673 0.196,-0.02 5.036,-0.565 5.968,-0.667 c 1.04,-0.12 1.913,-0.403 2.611,-0.854 0.242,-0.155 0.546,0.024 0.542,0.312 C -0.224,-2.099 -0.156,-1.049 0,0"
             style="fill:#ef8000;fill-opacity:1;fill-rule:nonzero;stroke:none"
             id="path166" /></g><g
           id="g168"
           transform="translate(262.1953,13.4898)"><path
             d="m 0,0 3.93,-0.591 c 0,0 1.796,-0.347 2.403,-0.358 0.286,-0.006 0.755,0.085 1.126,0.184 1.958,0.526 3.492,1.961 3.89,3.794 0.248,1.137 0.346,2.292 0.346,2.292 0,0 0.009,0.002 0.007,0.011 l 0.445,4 c 0.146,1.305 0.421,2.573 0.824,3.802 0.832,2.558 2.19,4.912 3.98,6.904 0.862,0.964 1.828,1.847 2.884,2.629 l 3.034,2.243 c 0,0 1.796,1.213 2.318,1.708 1.294,1.229 1.601,3.27 1.102,5.126 -0.086,0.321 -0.332,0.891 -0.503,1.161 -0.363,0.574 -1.527,1.885 -1.527,1.885 l -2.439,3.053 c -0.663,0.832 -1.248,1.708 -1.76,2.623 -0.14,0.25 -0.493,0.254 -0.625,-10e-4 -0.38,-0.739 -0.988,-1.425 -1.831,-2.045 L 12.773,34.853 8.697,31.841 8.539,31.726 3.681,28.124 C 1.244,26.32 -0.336,23.581 -0.678,20.576 L -1.351,14.562 -1.371,14.366 -1.936,9.33 -2.604,3.362 C -2.723,2.322 -3.007,1.449 -3.457,0.751 -3.613,0.509 -3.433,0.205 -3.145,0.209 -2.099,0.224 -1.05,0.156 0,0"
             style="fill:#00b0b6;fill-opacity:1;fill-rule:nonzero;stroke:none"
             id="path170" /></g><g
           id="g172"
           transform="translate(209.4707,31.376)"><path
             d="m 0,0 -0.59,-3.93 -0.359,-2.403 -0.007,-0.011 0.003,-0.008 c 0.028,-0.373 0.089,-0.736 0.189,-1.107 0.525,-1.958 1.998,-3.398 3.781,-3.978 0.003,-0.008 0.011,-0.006 0.011,-0.006 l 0.009,0.003 2.284,-0.255 c 0,0 0.002,-0.009 0.011,-0.007 l 4,-0.444 c 1.305,-0.147 2.573,-0.422 3.803,-0.825 2.557,-0.832 4.911,-2.19 6.903,-3.98 0.964,-0.862 1.847,-1.828 2.629,-2.884 l 2.244,-3.034 1.675,-2.275 c 0.022,-0.028 0.047,-0.055 0.075,-0.077 1.376,-1.106 3.246,-1.561 5.084,-1.068 0.32,0.086 0.634,0.198 0.922,0.338 l 2.123,1.692 3.054,2.439 c 0.831,0.663 1.707,1.248 2.622,1.76 0.25,0.14 0.254,0.493 -10e-4,0.625 -0.739,0.38 -1.425,0.988 -2.044,1.831 l -3.568,4.832 -3.012,4.075 -0.115,0.159 -3.602,4.857 C 26.32,-1.243 23.581,0.336 20.576,0.678 L 14.562,1.351 14.366,1.371 9.33,1.936 3.362,2.604 C 2.322,2.723 1.449,3.007 0.751,3.457 0.509,3.613 0.205,3.433 0.209,3.146 0.224,2.099 0.156,1.05 0,0"
             style="fill:#d9007f;fill-opacity:1;fill-rule:nonzero;stroke:none"
             id="path174" /></g><g
           id="g176"
           transform="translate(428.3179,95.3003)"><path
             d="M 0,0 V 16.684 H 2.742 L 8.866,2.766 14.875,16.684 H 17.5 V 0 H 15.575 V 13.685 L 9.647,0 H 7.945 L 1.925,13.685 V 0 Z"
             style="fill:#3f3b3a;fill-opacity:1;fill-rule:nonzero;stroke:none"
             id="path178" /></g><g
           id="g180"
           transform="translate(463.0816,111.9839)"><path
             d="m 0,0 v -1.75 h -8.749 v -5.601 h 8.341 V -9.1 h -8.341 v -5.833 h 8.924 v -1.751 H -10.908 V 0 Z"
             style="fill:#3f3b3a;fill-opacity:1;fill-rule:nonzero;stroke:none"
             id="path182" /></g><g
           id="g184"
           transform="translate(480.1734,111.9839)"><path
             d="M 0,0 V -1.75 H -5.25 V -16.684 H -7.409 V -1.75 h -5.25 V 0 Z"
             style="fill:#3f3b3a;fill-opacity:1;fill-rule:nonzero;stroke:none"
             id="path186" /></g><g
           id="g188"
           transform="translate(483.9273,95.3003)"><path
             d="M 0,0 H -2.238 L 4.843,16.684 H 7.234 L 14.351,0 H 11.96 L 9.801,5.25 H 4.283 L 4.878,7 h 4.199 l -3.114,7.56 z"
             style="fill:#3f3b3a;fill-opacity:1;fill-rule:nonzero;stroke:none"
             id="path190" /></g><g
           id="g192"
           transform="translate(516.0894,111.9839)"><path
             d="M 0,0 -7.081,-16.684 H -9.473 L -16.589,0 h 2.274 L -8.201,-14.444 -2.238,0 Z"
             style="fill:#3f3b3a;fill-opacity:1;fill-rule:nonzero;stroke:none"
             id="path194" /></g><g
           id="g196"
           transform="translate(531.6646,111.9839)"><path
             d="m 0,0 v -1.75 h -8.749 v -5.601 h 8.342 V -9.1 h -8.342 v -5.833 h 8.925 v -1.751 H -10.908 V 0 Z"
             style="fill:#3f3b3a;fill-opacity:1;fill-rule:nonzero;stroke:none"
             id="path198" /></g><g
           id="g200"
           transform="translate(537.4957,95.3003)"><path
             d="m 0,0 v 16.684 h 7.116 c 3.173,0 4.761,-1.334 4.761,-4.002 0,-2.17 -1.553,-3.776 -4.655,-4.819 L 12.95,0 H 10.104 L 4.796,7.501 v 1.413 c 3.186,0.504 4.781,1.731 4.781,3.674 0,1.541 -0.885,2.31 -2.66,2.31 H 2.159 V 0 Z"
             style="fill:#3f3b3a;fill-opacity:1;fill-rule:nonzero;stroke:none"
             id="path202" /></g><g
           id="g204"
           transform="translate(554.8755,95.8833)"><path
             d="M 0,0 V 1.983 C 1.752,1.362 3.642,1.05 5.672,1.05 c 2.869,0 4.305,1.051 4.305,3.15 0,1.789 -1.059,2.683 -3.173,2.683 H 4.656 c -3.492,0 -5.239,1.518 -5.239,4.551 0,3.189 2.236,4.784 6.71,4.784 1.943,0 3.751,-0.235 5.426,-0.7 v -1.984 c -1.675,0.622 -3.483,0.933 -5.426,0.933 -3.033,0 -4.551,-1.011 -4.551,-3.033 0,-1.789 1.027,-2.684 3.08,-2.684 h 2.148 c 3.554,0 5.332,-1.517 5.332,-4.55 0,-3.267 -2.155,-4.9 -6.464,-4.9 C 3.642,-0.7 1.752,-0.466 0,0"
             style="fill:#3f3b3a;fill-opacity:1;fill-rule:nonzero;stroke:none"
             id="path206" /></g><g
           id="g208"
           transform="translate(583.4576,111.9839)"><path
             d="m 0,0 v -1.75 h -8.749 v -5.601 h 8.341 V -9.1 h -8.341 v -5.833 h 8.924 v -1.751 H -10.908 V 0 Z"
             style="fill:#3f3b3a;fill-opacity:1;fill-rule:nonzero;stroke:none"
             id="path210" /></g></g></g></g></svg>
