<?xml version="1.0" encoding="UTF-8" standalone="no"?>
<svg
   xmlns:dc="http://purl.org/dc/elements/1.1/"
   xmlns:cc="http://creativecommons.org/ns#"
   xmlns:rdf="http://www.w3.org/1999/02/22-rdf-syntax-ns#"
   xmlns:svg="http://www.w3.org/2000/svg"
   xmlns="http://www.w3.org/2000/svg"
   xmlns:sodipodi="http://sodipodi.sourceforge.net/DTD/sodipodi-0.dtd"
   xmlns:inkscape="http://www.inkscape.org/namespaces/inkscape"
   version="1.1"
   id="svg2"
   xml:space="preserve"
   width="96.567329"
   height="83.32653"
   viewBox="0 0 96.567329 83.32653"
   sodipodi:docname="Vector Smart Object.ai"><metadata
     id="metadata8"><rdf:RDF><cc:Work
         rdf:about=""><dc:format>image/svg+xml</dc:format><dc:type
           rdf:resource="http://purl.org/dc/dcmitype/StillImage" /></cc:Work></rdf:RDF></metadata><defs
     id="defs6"><linearGradient
       x1="0"
       y1="0"
       x2="1"
       y2="0"
       gradientUnits="userSpaceOnUse"
       gradientTransform="matrix(58.750198,-38.050568,-38.050568,-58.750198,4.9703999,58.005882)"
       spreadMethod="pad"
       id="linearGradient30"><stop
         style="stop-opacity:1;stop-color:#93efdd"
         offset="0"
         id="stop24" /><stop
         style="stop-opacity:1;stop-color:#ccbbff"
         offset="0.503927"
         id="stop26" /><stop
         style="stop-opacity:1;stop-color:#ffbafc"
         offset="1"
         id="stop28" /></linearGradient></defs><sodipodi:namedview
     pagecolor="#ffffff"
     bordercolor="#666666"
     borderopacity="1"
     objecttolerance="10"
     gridtolerance="10"
     guidetolerance="10"
     inkscape:pageopacity="0"
     inkscape:pageshadow="2"
     inkscape:window-width="640"
     inkscape:window-height="480"
     id="namedview4" /><g
     id="g10"
     inkscape:groupmode="layer"
     inkscape:label="Vector Smart Object"
     transform="matrix(1.3333333,0,0,-1.3333333,0,83.326533)"><g
       id="g12"><g
         id="g14"><g
           id="g20"><g
             id="g22"><path
               d="M 53.654,62.488 C 48.189,62.289 41.309,59.769 37.398,54.743 v 0 c -1.172,-1.506 -2.465,0.125 -2.465,0.125 v 0 c -3.941,4.934 -10.74,7.422 -16.162,7.62 v 0 C 12.706,62.708 -0.723,57.739 0.031,40.413 v 0 C 0.794,23.083 20.072,9.18 27.005,4.321 v 0 C 32.598,0.406 35.16,0.008 35.942,0 v 0 h 0.051 c 0.153,0.002 0.223,0.019 0.223,0.019 v 0 c 0,0 0.07,-0.017 0.224,-0.019 v 0 h 0.048 c 0.781,0.007 3.341,0.404 8.935,4.323 v 0 c 6.93,4.859 26.215,18.764 26.972,36.093 v 0 c 0.019,0.432 0.029,0.855 0.031,1.271 v 0 0.234 C 72.368,57.683 60.095,62.496 54.048,62.495 v 0 c -0.135,0 -0.267,-0.002 -0.394,-0.007"
               style="fill:url(#linearGradient30);stroke:none"
               id="path32" /></g></g></g></g></g></svg>
