<?xml version="1.0" encoding="UTF-8" standalone="no"?>
<svg
   xmlns:dc="http://purl.org/dc/elements/1.1/"
   xmlns:cc="http://creativecommons.org/ns#"
   xmlns:rdf="http://www.w3.org/1999/02/22-rdf-syntax-ns#"
   xmlns:svg="http://www.w3.org/2000/svg"
   xmlns="http://www.w3.org/2000/svg"
   xmlns:sodipodi="http://sodipodi.sourceforge.net/DTD/sodipodi-0.dtd"
   xmlns:inkscape="http://www.inkscape.org/namespaces/inkscape"
   version="1.1"
   id="svg2"
   xml:space="preserve"
   width="72.444397"
   height="82.814796"
   viewBox="0 0 72.444397 82.814796"
   sodipodi:docname="main-offering.ai"><metadata
     id="metadata8"><rdf:RDF><cc:Work
         rdf:about=""><dc:format>image/svg+xml</dc:format><dc:type
           rdf:resource="http://purl.org/dc/dcmitype/StillImage" /></cc:Work></rdf:RDF></metadata><defs
     id="defs6"><linearGradient
       x1="0"
       y1="0"
       x2="1"
       y2="0"
       gradientUnits="userSpaceOnUse"
       gradientTransform="matrix(54.333313,0,0,-54.333313,0,28.555572)"
       spreadMethod="pad"
       id="linearGradient28"><stop
         style="stop-opacity:1;stop-color:#814597"
         offset="0"
         id="stop24" /><stop
         style="stop-opacity:1;stop-color:#520c71"
         offset="1"
         id="stop26" /></linearGradient><linearGradient
       x1="0"
       y1="0"
       x2="1"
       y2="0"
       gradientUnits="userSpaceOnUse"
       gradientTransform="matrix(54.222221,0,0,-54.222221,0.0555454,57.111111)"
       spreadMethod="pad"
       id="linearGradient48"><stop
         style="stop-opacity:1;stop-color:#3a0054"
         offset="0"
         id="stop44" /><stop
         style="stop-opacity:1;stop-color:#020024"
         offset="1"
         id="stop46" /></linearGradient><clipPath
       clipPathUnits="userSpaceOnUse"
       id="clipPath58"><path
         d="M 0,62.111 H 54.333 V 0 H 0 Z"
         id="path56" /></clipPath></defs><sodipodi:namedview
     pagecolor="#ffffff"
     bordercolor="#666666"
     borderopacity="1"
     objecttolerance="10"
     gridtolerance="10"
     guidetolerance="10"
     inkscape:pageopacity="0"
     inkscape:pageshadow="2"
     inkscape:window-width="640"
     inkscape:window-height="480"
     id="namedview4" /><g
     id="g10"
     inkscape:groupmode="layer"
     inkscape:label="main-offering"
     transform="matrix(1.3333333,0,0,-1.3333333,0,82.8148)"><g
       id="g12"><g
         id="g14"><g
           id="g20"><g
             id="g22"><path
               d="M 0,57.111 3.973,5.012 c 0,-0.004 0,-0.008 0,-0.012 v 0 c 0,-0.019 0.005,-0.038 0.006,-0.057 v 0 L 4,4.667 H 4.029 C 4.826,2.06 14.877,0 27.167,0 v 0 c 12.29,0 22.341,2.06 23.138,4.667 v 0 h 0.028 l 0.021,0.274 c 0.002,0.02 0.007,0.04 0.007,0.059 v 0 c 0,0.004 -0.002,0.008 -0.002,0.013 v 0 L 54.333,57.1 v 0.011 z"
               style="fill:url(#linearGradient28);stroke:none"
               id="path30" /></g></g></g></g><g
       id="g32"><g
         id="g34"><g
           id="g40"><g
             id="g42"><path
               d="M 26.649,62.111 C 11.914,62.06 0.056,59.841 0.056,57.111 v 0 c 0,-2.762 12.137,-5 27.111,-5 v 0 c 14.973,0 27.111,2.238 27.111,5 v 0 c 0,2.73 -11.859,4.949 -26.594,5 v 0 z"
               style="fill:url(#linearGradient48);stroke:none"
               id="path50" /></g></g></g></g><g
       id="g52"><g
         id="g54"
         clip-path="url(#clipPath58)"><g
           id="g60"
           transform="translate(38.2412,35.9487)"><path
             d="m 0,0 h -9.673 v 9.607 h -2.803 V 0 h -9.673 v -2.802 h 9.673 v -18.147 h 2.803 V -2.802 H 0 Z"
             style="fill:#fff100;fill-opacity:1;fill-rule:nonzero;stroke:none"
             id="path62" /></g></g></g></g></svg>
